<svg xmlns="http://www.w3.org/2000/svg" width="36" height="36" viewBox="0 0 36 36">
  <g id="order-color" transform="translate(-11729 7167)">
    <rect id="Rectangle_9436" data-name="Rectangle 9436" width="36" height="36" transform="translate(11729 -7167)" fill="none"/>
    <g id="Group_8385" data-name="Group 8385" transform="translate(11733 -7161.007)">
      <path id="Path_11343" data-name="Path 11343" d="M20.6,68.161a35.214,35.214,0,0,0-6.252-4.016.206.206,0,0,1-.113-.178V59.732a1.977,1.977,0,0,0,.884-1.649v-4.4a3.956,3.956,0,0,0-3.957-3.957h-.949a3.956,3.956,0,0,0-3.957,3.957v4.4a1.977,1.977,0,0,0,.884,1.649v4.241a.2.2,0,0,1-.113.178A34.069,34.069,0,0,0,.777,68.167,2.126,2.126,0,0,0,0,69.81v3.013H21.372V69.81A2.124,2.124,0,0,0,20.6,68.161Z" transform="translate(0 -49.73)" fill="#25bb48"/>
      <path id="Path_11344" data-name="Path 11344" d="M296.928,51.463a6,6,0,0,0-8.732,8.21l.059.047a2.855,2.855,0,0,1-1.234,1.394.234.234,0,0,0,.065.439,3.411,3.411,0,0,0,2.551-.694l.012.012a6,6,0,0,0,7.278-9.408ZM292.942,52a.985.985,0,0,1,0,1.969.986.986,0,0,1-.979-.991A.976.976,0,0,1,292.942,52Zm1.388,6.59a.571.571,0,0,1-.136.231,1.813,1.813,0,0,1-1.293.581,4.1,4.1,0,0,1-.712-.042,1.037,1.037,0,0,1-.819-1.056c.047-.35.1-.706.16-1.056.1-.611.214-1.222.32-1.833a.728.728,0,0,0,.012-.119c0-.255-.083-.344-.332-.38a1.908,1.908,0,0,1-.32-.059.233.233,0,0,1-.172-.243c.012-.107.077-.172.22-.2a1.387,1.387,0,0,1,.225-.018h1.845c.225,0,.368.107.368.338a3.1,3.1,0,0,1-.059.569c-.125.7-.255,1.394-.38,2.094-.042.231-.089.463-.119.694a.924.924,0,0,0,.03.338.255.255,0,0,0,.3.208,1.487,1.487,0,0,0,.362-.1c.095-.036.178-.1.273-.142C294.247,58.344,294.366,58.439,294.33,58.587Z" transform="translate(-269.69 -49.706)" fill="#25bb48"/>
    </g>
  </g>
</svg>
