<svg id="Group_21678" data-name="Group 21678" xmlns="http://www.w3.org/2000/svg" xmlns:xlink="http://www.w3.org/1999/xlink" width="490.665" height="491.297" viewBox="0 0 490.665 491.297">
  <defs>
    <clipPath id="clip-path">
      <rect id="Rectangle_11926" data-name="Rectangle 11926" width="490.666" height="491.297" fill="none"/>
    </clipPath>
  </defs>
  <g id="Group_21677" data-name="Group 21677" clip-path="url(#clip-path)">
    <path id="Path_14084" data-name="Path 14084" d="M353.654,0c10.991,2.05,21.9,4.418,32.016,9.4,33.891,16.692,54.843,43.326,60.182,80.952,4.984,35.136-6.371,65.16-31.393,90.036q-52.826,52.516-105.877,104.8Q251.893,341.3,195.263,397.46c-14.8,14.771-32.115,23.979-53.12,23.9-26.067-.1-47.093-11.08-61.083-33.361-18.249-29.063-13.229-63.51,12.53-89.046q83.854-83.133,167.9-166.069c8.743-8.643,17.609-17.162,26.274-25.882,2.306-2.321,3.857-2.495,6.229-.075,6.368,6.5,12.913,12.827,19.5,19.1,2.276,2.167,2.732,3.632.165,6.166q-84.522,83.482-168.886,167.123c-8.964,8.873-18.138,17.539-26.97,26.541-14.014,14.282-14.858,33.179-2.406,47.919,11.268,13.338,33.761,15.4,47.223,4.275,2.825-2.336,5.555-4.806,8.161-7.385Q247.4,294.857,323.969,219q32.511-32.183,65.1-64.283c14.523-14.285,22.02-31.518,21.723-51.9-.521-35.858-31.034-66.249-66.884-67.224-21.357-.58-39.3,6.807-54.363,21.724q-74.531,73.827-149.071,147.647c-25.748,25.509-51.832,50.693-77.072,76.7-16.8,17.309-25.2,38.717-26.86,62.942-3.712,54.053,35.236,99.9,85.373,108.65,34.506,6.025,65.774-2.073,91.218-26.391,36.7-35.078,72.392-71.214,108.511-106.9Q391.5,250.94,461.274,181.843c3.313-3.289,5.171-3.225,8.354.059,6.771,6.988,14,13.535,21.038,20.263v1.916c-13.134,12.823-26.343,25.571-39.391,38.481q-81.885,81.024-163.7,162.121c-15.316,15.164-30.911,30.054-45.973,45.465a129.5,129.5,0,0,1-48.313,30.865c-50.467,18.687-97.884,12.029-140.455-20.97C22.02,436.156,4.686,403.952.738,364.925c-3.5-34.652,5.578-65.9,25.078-94.6A126.492,126.492,0,0,1,41.86,251.608Q111.1,183,180.379,114.437q41.022-40.6,82.065-81.178C280.318,15.487,301.277,3.928,326.452.508A6.186,6.186,0,0,0,327.785,0Z"/>
  </g>
</svg>
