<svg id="user" xmlns="http://www.w3.org/2000/svg" xmlns:xlink="http://www.w3.org/1999/xlink" width="12.944" height="14.643" viewBox="0 0 12.944 14.643">
  <defs>
    <clipPath id="clip-path">
      <rect id="Rectangle_10063" data-name="Rectangle 10063" width="12.944" height="14.643" fill="#7b7b7b"/>
    </clipPath>
  </defs>
  <g id="Group_19549" data-name="Group 19549" clip-path="url(#clip-path)">
    <path id="Path_13648" data-name="Path 13648" d="M12.944,188.42a1.454,1.454,0,0,0-.016-.234,23.305,23.305,0,0,0-.577-2.83,8.041,8.041,0,0,0-.653-1.679,2.163,2.163,0,0,0-1.135-.931,8.288,8.288,0,0,0-1.411-.44c-.06-.014-.085,0-.1.026a.2.2,0,0,0-.028.069,9.3,9.3,0,0,1-1.112,2.525,9.716,9.716,0,0,1-.554.823c-.17-.705-.334-1.392-.5-2.077a.3.3,0,0,1,0-.106c.007-.02.016-.038.024-.058.084-.2.171-.4.262-.605H5.8c.091.209.178.407.262.605.008.019.017.038.024.058a.3.3,0,0,1,0,.106c-.168.685-.332,1.371-.5,2.077a9.706,9.706,0,0,1-.554-.823A9.3,9.3,0,0,1,3.919,182.4a.2.2,0,0,0-.028-.069c-.014-.026-.039-.04-.1-.026a8.287,8.287,0,0,0-1.411.44,2.163,2.163,0,0,0-1.135.931,8.046,8.046,0,0,0-.653,1.679,23.313,23.313,0,0,0-.577,2.83A1.459,1.459,0,0,0,0,188.42a1.256,1.256,0,0,0,.285.817,1.235,1.235,0,0,0,.978.466l5.209,0,5.209,0a1.235,1.235,0,0,0,.978-.466,1.256,1.256,0,0,0,.285-.817" transform="translate(0 -175.062)" fill="#7b7b7b"/>
    <path id="Path_13649" data-name="Path 13649" d="M78.994,3.954c.107.014.124.057.122.151q-.008.417,0,.833a1.7,1.7,0,0,0,1.544,1.7c.39.043.783,0,1.1.017.41,0,.748,0,1.085,0a1.707,1.707,0,0,0,1.693-1.351,4.752,4.752,0,0,0,.041-1.067c0-.159-.011-.271.206-.316a.588.588,0,0,0,.427-.65.605.605,0,0,0-.488-.562c-.131-.025-.149-.083-.145-.2.008-.193.006-.387,0-.58A1.988,1.988,0,0,0,82.605,0c-.506,0-1.012,0-1.518,0a2.006,2.006,0,0,0-1.88,1.385,3.363,3.363,0,0,0-.09,1.105c0,.132-.02.193-.168.221a.614.614,0,0,0-.469.695.579.579,0,0,0,.514.546" transform="translate(-75.364 0.001)" fill="#7b7b7b"/>
  </g>
</svg>
