<svg id="Group_21420" data-name="Group 21420" xmlns="http://www.w3.org/2000/svg" xmlns:xlink="http://www.w3.org/1999/xlink" width="17.1" height="16.197" viewBox="0 0 17.1 16.197">
  <defs>
    <clipPath id="clip-path">
      <rect id="Rectangle_11891" data-name="Rectangle 11891" width="17.1" height="16.197" fill="#707070"/>
    </clipPath>
  </defs>
  <g id="Group_21419" data-name="Group 21419" clip-path="url(#clip-path)">
    <path id="Path_14054" data-name="Path 14054" d="M7.2,16.2q-3.114,0-6.229,0a.922.922,0,0,1-.789-.374.973.973,0,0,1-.186-.6Q0,9.963,0,4.7q0-.961,0-1.922a.939.939,0,0,1,.99-.99H7.945c.139,0,.144,0,.158-.134A1.872,1.872,0,0,1,9.683.031a1.984,1.984,0,0,1,1.829.621c.348.359.69.724,1.037,1.084Q13.887,3.128,15.244,4.5q.784.8,1.567,1.592a.952.952,0,0,1,.274.5.873.873,0,0,1-.266.805q-.863.877-1.73,1.75c-.209.212-.416.426-.627.637a.194.194,0,0,0-.058.15q0,2.082,0,4.164c0,.391,0,.781,0,1.172a.92.92,0,0,1-.7.895,1.224,1.224,0,0,1-.3.03H7.2m-3.581-3.63c-.023-.014-.018-.034-.019-.054-.006-.373-.008-.746.018-1.119a13.623,13.623,0,0,1,.152-1.388,9.932,9.932,0,0,1,.7-2.385A5.667,5.667,0,0,1,5.995,5.534a4.384,4.384,0,0,1,2.13-.965A4.583,4.583,0,0,1,8.879,4.5c.086,0,.115-.035.112-.122-.007-.18,0-.36,0-.539,0-.221,0-.22-.224-.221C6.487,3.608,4.208,3.633,1.93,3.6c-.115,0-.115,0-.115.126q0,5.268,0,10.535c0,.017,0,.034,0,.051,0,.051.021.071.07.069s.112,0,.169,0H12.471c.121,0,.121,0,.121-.118q0-1.863,0-3.725c0-.032.012-.067-.014-.1-.032.006-.047.032-.066.052q-.239.244-.476.489c-.417.433-.828.872-1.251,1.3a1.072,1.072,0,0,1-1.355.141.917.917,0,0,1-.442-.822q0-1.033,0-2.065c0-.149,0-.3,0-.447,0-.057-.019-.083-.078-.078-.084.007-.168.012-.252.015a4.524,4.524,0,0,0-1.172.219,5.933,5.933,0,0,0-2.372,1.481,9.88,9.88,0,0,0-1.171,1.379c-.108.153-.214.307-.32.46M9.907,9.88v1.29c0,.138,0,.275,0,.413,0,.078.03.1.1.105a.251.251,0,0,0,.2-.106c.145-.153.288-.308.435-.458.842-.858,1.685-1.716,2.517-2.584.556-.58,1.128-1.145,1.7-1.713.061-.061.057-.093,0-.153-.6-.619-1.217-1.215-1.81-1.837-.537-.563-1.084-1.117-1.624-1.677-.357-.37-.711-.743-1.067-1.114-.06-.063-.12-.126-.183-.186a.217.217,0,0,0-.23-.033c-.065.022-.034.094-.034.143q0,1.665,0,3.329c0,.083-.021.111-.108.111-.359,0-.719-.008-1.078.011a3.731,3.731,0,0,0-1.353.314A3.8,3.8,0,0,0,5.726,7.2a7.317,7.317,0,0,0-.968,2.535c0,.024-.021.054.007.069s.044-.016.062-.032a7.086,7.086,0,0,1,1.682-1.11A5.982,5.982,0,0,1,9.06,8.093h.725c.122,0,.122,0,.122.127q0,.83,0,1.66" transform="translate(0 0)" fill="#707070"/>
  </g>
</svg>
