<svg id="Group_21569" data-name="Group 21569" xmlns="http://www.w3.org/2000/svg" xmlns:xlink="http://www.w3.org/1999/xlink" width="15.066" height="11.867" viewBox="0 0 15.066 11.867">
  <defs>
    <clipPath id="clip-path">
      <rect id="Rectangle_11866" data-name="Rectangle 11866" width="15.066" height="11.867" fill="#009587"/>
    </clipPath>
  </defs>
  <g id="Group_21387" data-name="Group 21387" clip-path="url(#clip-path)">
    <path id="Path_14041" data-name="Path 14041" d="M6.467.005q2.355,0,4.71,0a1.632,1.632,0,0,1,1.544,1.284,1.451,1.451,0,0,1,.014.246c0,1.825,0,3.65,0,5.475a1.15,1.15,0,0,1-.663,1.09,2,2,0,0,1-.964.234q-3.307,0-6.614,0a.749.749,0,0,0-.4.11q-1.426.845-2.855,1.683c-.035.021-.075.067-.116.032s0-.083.006-.123c.135-.516.269-1.033.41-1.548.033-.122.011-.171-.122-.193a2.07,2.07,0,0,1-1.04-.452A1,1,0,0,1,0,7.059q0-2.745,0-5.49A1.335,1.335,0,0,1,.517.509,2.106,2.106,0,0,1,1.961,0c1.5.013,3,0,4.506,0M2.356,3.955a.868.868,0,0,0,.84.855.851.851,0,1,0-.84-.855m3.169-.009A.849.849,0,1,0,6.971,3.36a.847.847,0,0,0-1.447.587m4.859.016A.849.849,0,1,0,8.9,4.511a.857.857,0,0,0,1.482-.549" transform="translate(-0.001 0)" fill="#009587"/>
    <path id="Path_14042" data-name="Path 14042" d="M157.207,116.447q-.772-.456-1.546-.909a4.168,4.168,0,0,0-.737-.414,3.081,3.081,0,0,0-.939-.051c-1.348,0-2.7.035-4.046.009a4.582,4.582,0,0,1-1.814-.134,1.376,1.376,0,0,1-.839-1.055c-.021-.448.7-.276,1-.276l2.018,0c1.345,0,2.691,0,4.036.005.933.006,2.04.091,2.238-1.077a11.1,11.1,0,0,0,.03-1.8q0-.984,0-1.968c0-.217-.1-.763,0-.947.093-.164.448-.1.623-.075.624.1.82.608.826,1.18.014,1.508.006,3.017,0,4.526,0,.591-.027,1.321-.689,1.561-.2.074-.413-.026-.432.2a4.254,4.254,0,0,0,.269,1.089c.01.04.036.081,0,.139" transform="translate(-142.995 -104.58)" fill="#009587"/>
  </g>
</svg>
