<svg xmlns="http://www.w3.org/2000/svg" width="36" height="36" viewBox="0 0 36 36">
  <g id="contact_white" transform="translate(-11854 7167)">
    <rect id="Rectangle_9438" data-name="Rectangle 9438" width="36" height="36" transform="translate(11854 -7167)" fill="none"/>
    <g id="add-user_1_" data-name="add-user (1)" transform="translate(11838.886 -7164)">
      <g id="Group_10546" data-name="Group 10546" transform="translate(20.114)">
        <path id="Path_10956" data-name="Path 10956" d="M31.237,217.406a7.724,7.724,0,0,1,4.087-6.834h0a3.379,3.379,0,0,1,.5-.235,9.075,9.075,0,0,0-3.853-.838H29.428a9.287,9.287,0,0,0-9.314,9.28v2.345a.987.987,0,0,0,1.005,1.005H32.845a5.683,5.683,0,0,1-.335-.469A7.563,7.563,0,0,1,31.237,217.406Z" transform="translate(-20.114 -196.065)" fill="#fff"/>
        <path id="Path_10957" data-name="Path 10957" d="M95.242,12.329A6.19,6.19,0,0,0,99.6,10.52a6.147,6.147,0,0,0,0-8.711,6.147,6.147,0,0,0-8.711,0,6.25,6.25,0,0,0-1.809,4.355A6.191,6.191,0,0,0,95.242,12.329Z" transform="translate(-84.656)" fill="#fff"/>
      </g>
      <path id="Path_10958" data-name="Path 10958" d="M198.694,211.592a7.936,7.936,0,0,0-3.149.67c-.167.067-.335.168-.5.234h0a7.8,7.8,0,0,0-4.087,6.835,7.563,7.563,0,0,0,1.273,4.255,4.066,4.066,0,0,0,.335.469,7.761,7.761,0,1,0,6.131-12.463Z" transform="translate(-159.886 -198.024)" fill="#fff" stroke="#008578" stroke-width="1"/>
      <path id="Path_10959" data-name="Path 10959" d="M257.4,280.33v-1.776h1.776a1.005,1.005,0,1,0,0-2.01H257.4v-1.776a1.005,1.005,0,1,0-2.01,0v1.776H253.61a1.005,1.005,0,1,0,0,2.01h1.776v1.776a1.005,1.005,0,1,0,2.01,0Z" transform="translate(-217.582 -256.209)" fill="#008578"/>
    </g>
  </g>
</svg>
