<svg xmlns="http://www.w3.org/2000/svg" width="27" height="27" viewBox="0 0 27 27">
  <g id="Group_21284" data-name="Group 21284" transform="translate(-954 -271)">
    <g id="Group_21116" data-name="Group 21116" transform="translate(-3)">
      <path id="Path_14030" data-name="Path 14030" d="M7,0H20a7,7,0,0,1,7,7V20a7,7,0,0,1-7,7H7a7,7,0,0,1-7-7V7A7,7,0,0,1,7,0Z" transform="translate(957 271)" fill="#368c0e"/>
      <g id="Group_19525" data-name="Group 19525" transform="translate(964.368 279)">
        <g id="Group_10373" data-name="Group 10373" transform="translate(-0.368)">
          <g id="scissors_2_" data-name="scissors (2)" transform="translate(0)">
            <g id="Group_10336" data-name="Group 10336">
              <path id="Path_10840" data-name="Path 10840" d="M12.343,30.419a1.818,1.818,0,0,0-2.519-.459L5.635,32.893,4.112,31.826a2.2,2.2,0,1,0-.927.872L5.051,34,3.185,35.31a2.2,2.2,0,1,0,.927.872l1.523-1.067,4.189,2.933a1.818,1.818,0,0,0,2.519-.459L7.222,34ZM2.209,31.872a1.143,1.143,0,1,1,1.143-1.143A1.143,1.143,0,0,1,2.209,31.872Zm0,6.55A1.143,1.143,0,1,1,3.351,37.28,1.143,1.143,0,0,1,2.209,38.422Z" transform="translate(0 -28.52)" fill="#fff"/>
            </g>
          </g>
        </g>
      </g>
    </g>
  </g>
</svg>
