<svg xmlns="http://www.w3.org/2000/svg" width="27" height="27" viewBox="0 0 27 27">
  <g id="Group_21333" data-name="Group 21333" transform="translate(-1055 -271)">
    <g id="Group_21111" data-name="Group 21111" transform="translate(21 2)">
      <g id="Group_21113" data-name="Group 21113">
        <path id="Path_14023" data-name="Path 14023" d="M7,0H20a7,7,0,0,1,7,7V20a7,7,0,0,1-7,7H7a7,7,0,0,1-7-7V7A7,7,0,0,1,7,0Z" transform="translate(1034 269)" fill="#ff3838"/>
        <g id="Group_10375" data-name="Group 10375" transform="translate(1042 276)">
          <g id="sewing-machine" transform="translate(0)">
            <g id="Group_10338" data-name="Group 10338">
              <g id="Group_10337" data-name="Group 10337">
                <rect id="Rectangle_8623" data-name="Rectangle 8623" width="0.761" height="0.761" transform="translate(10.858 7.354)" fill="#fff"/>
                <path id="Path_10845" data-name="Path 10845" d="M10.925,2.979H7.449a.5.5,0,0,0,.5-.5V.993a.5.5,0,0,0-.5-.5V.248a.248.248,0,0,0-.5,0V.5a.5.5,0,0,0-.5.5v1.49a.5.5,0,0,0,.5.5H5.462a.5.5,0,0,0,.5-.5V.993a.5.5,0,0,0-.5-.5V.248a.248.248,0,1,0-.5,0V.5a.5.5,0,0,0-.5.5v1.49a.5.5,0,0,0,.5.5H.993A.994.994,0,0,0,0,3.973v2.38a1.1,1.1,0,0,0,1.1,1.1H1.49V7.7a.248.248,0,0,0,.248.248V8.69a.248.248,0,1,0,.5,0V7.945A.248.248,0,0,0,2.483,7.7V7.449h.394a1.1,1.1,0,0,0,1.1-1.1v-.89H7.945V9.435H.248A.248.248,0,0,0,0,9.683v1.241a.994.994,0,0,0,.993.993h9.932a.994.994,0,0,0,.993-.993V3.973A.994.994,0,0,0,10.925,2.979ZM5.214,4.469h-.5a.248.248,0,0,1,0-.5h.5a.248.248,0,0,1,0,.5Zm1.49,0h-.5a.248.248,0,0,1,0-.5h.5a.248.248,0,0,1,0,.5Zm4.221,5.214a.248.248,0,0,1-.248.248H9.187a.248.248,0,0,1-.248-.248V7.2a.248.248,0,0,1,.248-.248h1.49a.248.248,0,0,1,.248.248ZM9.932,5.959a.993.993,0,1,1,.993-.993A.994.994,0,0,1,9.932,5.959Z" transform="translate(0)" fill="#fff"/>
              </g>
            </g>
          </g>
        </g>
      </g>
    </g>
  </g>
</svg>
