<svg id="Group_21682" data-name="Group 21682" xmlns="http://www.w3.org/2000/svg" xmlns:xlink="http://www.w3.org/1999/xlink" width="301.779" height="384" viewBox="0 0 301.779 384">
  <defs>
    <clipPath id="clip-path">
      <rect id="Rectangle_11938" data-name="Rectangle 11938" width="301.779" height="384" fill="none"/>
    </clipPath>
  </defs>
  <g id="Group_21681" data-name="Group 21681" clip-path="url(#clip-path)">
    <path id="Path_14085" data-name="Path 14085" d="M292.639,384H9.139C2.495,381.04,0,375.764,0,368.684Q.076,191.995,0,15.305C0,8.243,2.447,2.926,9.139,0h167.25q.066,38.994.129,77.987c.018,11.624-.054,23.248.063,34.871.061,6.152,3.686,10.393,9.7,11.555a33.6,33.6,0,0,0,6.328.485q51.745.043,103.489.024c5.579,0,5.643.041,5.644,5.647q.014,119.049.041,238.1c0,7.077-2.489,12.368-9.139,15.332M151.268,234.231q-21.926,0-43.851,0c-14.617,0-29.234-.038-43.851.03-6.509.031-11.586,4.48-12.174,10.408-.674,6.794,3.026,11.956,9.767,13.379a27.179,27.179,0,0,0,5.58.4q84.141.03,168.282.014c1.249,0,2.505.051,3.746-.063,6.588-.6,11.309-5.122,11.652-11.1.438-7.652-4.651-13.037-12.574-13.049q-43.289-.067-86.577-.025m-.628-25.978q41.415,0,82.828,0c2,0,4.009.093,5.994-.08A11.917,11.917,0,0,0,250.4,197.617c.55-6.23-2.662-11.1-8.45-12.966a20.088,20.088,0,0,0-6.3-.629q-84.7,0-169.4,0c-1.249,0-2.507-.059-3.746.063a11.958,11.958,0,0,0-11.151,12.675c.217,6.815,5.433,11.465,13.1,11.473q43.1.051,86.2.019m-37.22,76.179c-16.735,0-33.469-.058-50.2.028-7.117.036-11.987,5.164-11.884,12.148a11.334,11.334,0,0,0,10.948,11.516c4.484.239,8.989.124,13.484.125q42.523.012,85.046-.007c2.488,0,5,.126,7.378-.9a12.135,12.135,0,0,0,7.082-13.163,11.731,11.731,0,0,0-11.648-9.709c-16.734-.086-33.468-.03-50.2-.037"/>
    <path id="Path_14086" data-name="Path 14086" d="M247.292,100.688c-13.985,0-27.972-.106-41.954.07-3.789.048-5.018-1.3-5.005-4.984.092-27.97.043-55.941.069-83.911,0-1.317-.462-3.132,1-3.712,1.251-.495,2.1,1.083,2.947,1.933Q247.816,53.5,291.228,96.971c.822.824,2.433,1.568,1.809,2.949-.592,1.311-2.235.743-3.415.746q-21.165.054-42.33.022"/>
  </g>
</svg>
