<svg id="Group_21676" data-name="Group 21676" xmlns="http://www.w3.org/2000/svg" xmlns:xlink="http://www.w3.org/1999/xlink" width="409.115" height="383.851" viewBox="0 0 409.115 383.851">
  <defs>
    <clipPath id="clip-path">
      <rect id="Rectangle_11925" data-name="Rectangle 11925" width="409.115" height="383.851" fill="none"/>
    </clipPath>
  </defs>
  <g id="Group_21675" data-name="Group 21675" clip-path="url(#clip-path)">
    <path id="Path_14079" data-name="Path 14079" d="M0,336.448V47.413c2.752-6.272,7.927-8.659,14.381-9.85q71.547-13.2,143.036-26.716C176.1,7.347,194.761,3.783,213.448.336c9.882-1.822,16.746,3.9,16.795,13.91.051,10.243.011,20.486.016,30.73,0,6.115.007,6.121,6.216,6.121q79.02,0,158.042.013c9.328,0,14.572,5.053,14.574,14.107q.033,126.712.024,253.426a14.157,14.157,0,0,1-1.361,6.965c-2.844,5.243-7.363,7.2-13.2,7.188q-79.421-.09-158.84-.03c-5.361,0-5.44.08-5.447,5.289-.013,10.376.021,20.753-.014,31.129-.035,10.53-6.867,16.227-17.2,14.294q-99.729-18.656-199.46-37.3C7.367,345.026,2.634,342.34,0,336.448M382.945,191.92q0-54.288,0-108.576c0-6.075-.008-6.081-6.258-6.081q-70.055,0-140.111,0c-.931,0-1.865.049-2.794,0-2.574-.131-3.566,1.131-3.537,3.628.066,5.587.171,11.182-.04,16.763-.133,3.518,1.218,4.649,4.66,4.6,10.776-.154,21.555-.089,32.333-.04,8.4.038,14.081,5.286,14.134,12.941.055,7.878-5.607,13.161-14.253,13.194-10.777.041-21.556.089-32.332-.032-3.172-.036-4.655.893-4.536,4.308.19,5.448.186,10.913,0,16.362-.114,3.365,1.265,4.4,4.488,4.359,10.51-.131,21.022-.062,31.534-.042,9.379.018,15.141,5.067,15.1,13.184-.041,7.951-5.754,12.948-14.885,12.968-10.511.022-21.024.1-31.534-.048-3.389-.048-4.859.978-4.708,4.551.218,5.18.268,10.388-.014,15.562-.217,3.986,1.406,5.014,5.141,4.945,10.508-.194,21.022-.092,31.534-.056,8.728.029,14.439,5.2,14.466,13.013.028,7.861-5.641,13.1-14.32,13.127-10.91.039-21.822.068-32.732-.019-2.874-.023-4.122,1-4.052,3.962.126,5.319.223,10.653-.033,15.963-.182,3.787,1.033,5.2,4.971,5.118,10.641-.221,21.288-.106,31.933-.061,8.613.037,14.3,5.375,14.233,13.243-.066,7.664-5.72,12.858-14.154,12.892-10.911.045-21.822.084-32.732-.026-3.092-.031-4.321,1.086-4.225,4.2.154,5.051.032,10.111.04,15.167.009,5.585.016,5.6,5.536,5.6q70.654.008,141.309,0c5.824,0,5.837-.011,5.838-5.7q.006-54.487,0-108.976M64.428,242.483A12.175,12.175,0,0,0,73.387,254.7c5.906,1.534,10.36-.738,13.94-5.343,9.8-12.6,19.679-25.149,29.38-37.828,2.068-2.7,3.371-2.551,5.448-.092,5.667,6.707,11.51,13.265,17.307,19.861,5.885,6.7,11.708,13.449,17.733,20.016a11.43,11.43,0,0,0,13.142,3.119,11.665,11.665,0,0,0,7.86-10.187c.529-4.447-1.57-7.9-4.4-11.117q-17.676-20.068-35.257-40.221c-3.88-4.43-3.863-4.417-.151-9.185q18.144-23.307,36.269-46.63c2.435-3.128,4.279-6.484,3.569-10.616-.861-5.012-3.674-8.6-8.6-10.015-5.032-1.448-9.571-.212-12.959,3.894-4.064,4.924-7.936,10.006-11.863,15.043-8.016,10.283-16.071,20.537-23.978,30.9-2.022,2.651-3.5,2.644-5.494.1-1.964-2.511-4.169-4.835-6.274-7.237-7.63-8.7-15.219-17.446-22.914-26.093-3.6-4.04-8.167-5.51-13.363-3.772-4.852,1.623-7.614,5.241-8.242,10.311-.552,4.448,1.556,7.9,4.388,11.116C79.13,162.3,89.168,174.032,99.5,185.493c2.715,3.011,2.565,5.032.138,8.082-10.6,13.327-20.958,26.85-31.443,40.27a15.808,15.808,0,0,0-3.77,8.638"/>
    <path id="Path_14080" data-name="Path 14080" d="M331.751,128.339c-4.253,0-8.509.1-12.758-.023a13.03,13.03,0,0,1-.2-26.043q13.35-.279,26.711,0c7.275.155,12.59,6.033,12.472,13.322a12.737,12.737,0,0,1-12.675,12.719c-4.515.129-9.036.024-13.555.024"/>
    <path id="Path_14081" data-name="Path 14081" d="M332.18,153.323c4.386,0,8.775-.115,13.156.026a12.81,12.81,0,0,1,12.645,13.174,12.644,12.644,0,0,1-12.5,12.87q-13.352.256-26.711,0a12.632,12.632,0,0,1-12.446-12.924,12.8,12.8,0,0,1,12.3-13.1c4.511-.185,9.035-.035,13.554-.045"/>
    <path id="Path_14082" data-name="Path 14082" d="M332.11,204.422c4.386,0,8.775-.108,13.156.024a13.036,13.036,0,0,1-.117,26.067q-12.954.2-25.914,0a12.7,12.7,0,0,1-12.914-12.88c-.057-7.427,5.413-13.024,13.031-13.2,4.25-.1,8.505-.018,12.758-.011"/>
    <path id="Path_14083" data-name="Path 14083" d="M331.926,281.645c-4.254,0-8.509.09-12.759-.02a13.035,13.035,0,0,1-.146-26.065q13.152-.237,26.314,0a12.743,12.743,0,0,1,12.647,13.159c-.051,7.265-5.448,12.724-12.9,12.905-4.383.106-8.771.019-13.156.018"/>
  </g>
</svg>
