<svg id="Group_21418" data-name="Group 21418" xmlns="http://www.w3.org/2000/svg" xmlns:xlink="http://www.w3.org/1999/xlink" width="21.705" height="17.5" viewBox="0 0 21.705 17.5">
  <defs>
    <clipPath id="clip-path">
      <rect id="Rectangle_11890" data-name="Rectangle 11890" width="21.705" height="17.5" fill="#707070"/>
    </clipPath>
  </defs>
  <g id="Group_21417" data-name="Group 21417" clip-path="url(#clip-path)">
    <path id="Path_14048" data-name="Path 14048" d="M50.337,90.276a7.427,7.427,0,0,1,.345-3.09,4.2,4.2,0,0,1,1.705-1.913,5.485,5.485,0,0,1,2.921-.571,8.991,8.991,0,0,1,3.286.281,4.217,4.217,0,0,1,2.157,1.927,6.535,6.535,0,0,1,.492,3.2q0,.474,0,.948a3.251,3.251,0,0,1-.017.875c-.137.451-.855.6-1.254.711a15.526,15.526,0,0,1-3.631.475,18.478,18.478,0,0,1-4.154-.426c-.312-.065-.623-.135-.93-.22-.222-.062-.7-.131-.853-.32s-.065-.556-.065-.773c0-.367,0-.734,0-1.1Z" transform="translate(-44.931 -75.621)" fill="#707070"/>
    <path id="Path_14049" data-name="Path 14049" d="M.006,68.708c0-.489-.014-.978,0-1.466a4.162,4.162,0,0,1,3.628-4.019,5.171,5.171,0,0,1,.68-.038c.861,0,1.721,0,2.582,0a.231.231,0,0,1,.257.185,3.482,3.482,0,0,0,1.119,1.563c.021.017.044.031.064.048s.051.03.044.061-.042.024-.067.028a4.05,4.05,0,0,0-1.662.663A4.126,4.126,0,0,0,5.1,67.686a4.242,4.242,0,0,0-.251,1.594c.01.72,0,1.44.007,2.159,0,.114-.033.161-.152.156a15.38,15.38,0,0,1-3.5-.483,3.7,3.7,0,0,1-.973-.4A.446.446,0,0,1,0,70.294c.005-.529,0-1.057,0-1.586Z" transform="translate(0 -56.422)" fill="#707070"/>
    <path id="Path_14050" data-name="Path 14050" d="M132.908,69.648c0,.509.041,1.039,0,1.546s-.588.639-1,.774a12.091,12.091,0,0,1-3.036.5,2.435,2.435,0,0,1-.667.026c-.182-.051-.155-.118-.158-.3-.007-.568.012-1.138.01-1.706a4.569,4.569,0,0,0-.614-2.623,4.235,4.235,0,0,0-1.931-1.624,4.081,4.081,0,0,0-.664-.208c-.089-.02-.335-.005-.3-.125.028-.09.34-.283.423-.372a3.817,3.817,0,0,0,.5-.649c.117-.2.169-.428.281-.621.1-.177.155-.158.367-.162.6-.013,1.194-.006,1.79,0a5.592,5.592,0,0,1,2.765.471,4.227,4.227,0,0,1,1.876,2.008,7.432,7.432,0,0,1,.353,3.068" transform="translate(-111.222 -57.239)" fill="#707070"/>
    <path id="Path_14051" data-name="Path 14051" d="M78.4,24.779A3.178,3.178,0,1,1,75.206,21.6,3.189,3.189,0,0,1,78.4,24.779" transform="translate(-64.331 -19.29)" fill="#707070"/>
    <path id="Path_14052" data-name="Path 14052" d="M21,3.192a3.175,3.175,0,0,1,6.222-.912.29.29,0,0,1-.113.369,3.716,3.716,0,0,0-1.43,2.546,2.651,2.651,0,0,0-.009.586.236.236,0,0,1-.171.265,3.266,3.266,0,0,1-1.134.282,3.089,3.089,0,0,1-2.894-1.5A2.786,2.786,0,0,1,21,3.192" transform="translate(-18.751 0.001)" fill="#707070"/>
    <path id="Path_14053" data-name="Path 14053" d="M124.843,6.513a3.648,3.648,0,0,0-1.322-2.8c-.306-.261-.319-.261-.171-.633A3.112,3.112,0,0,1,126.031.991a3.19,3.19,0,0,1,3.46,2.7,3.185,3.185,0,0,1-4.454,3.339.267.267,0,0,1-.2-.314,1.363,1.363,0,0,0,0-.2" transform="translate(-110.067 -0.866)" fill="#707070"/>
  </g>
</svg>
