<svg xmlns="http://www.w3.org/2000/svg" width="25" height="25" viewBox="0 0 25 25">
  <g id="Group_19405" data-name="Group 19405" transform="translate(13878 -3986)">
    <rect id="Rectangle_7170" data-name="Rectangle 7170" width="25" height="25" rx="12.5" transform="translate(-13878 3986)" fill="#fdae47"/>
    <path id="icons8-close" d="M4.58,3.99A.59.59,0,0,0,4.169,5L7.881,8.715,4.169,12.428A.59.59,0,1,0,5,13.262L8.716,9.55l3.713,3.713a.59.59,0,1,0,.834-.834L9.55,8.715,13.263,5a.59.59,0,1,0-.834-.834L8.716,7.881,5,4.169A.59.59,0,0,0,4.58,3.99Z" transform="translate(-13874.218 3989.782)" fill="#fff" stroke="#fff" stroke-width="0.5"/>
  </g>
</svg>
