<svg xmlns="http://www.w3.org/2000/svg" xmlns:xlink="http://www.w3.org/1999/xlink" width="15.092" height="15.092" viewBox="0 0 15.092 15.092">
  <defs>
    <clipPath id="clip-path">
      <rect id="Rectangle_11884" data-name="Rectangle 11884" width="15.092" height="15.092" transform="translate(0 0)" fill="#707070"/>
    </clipPath>
    <clipPath id="clip-path-2">
      <rect id="Rectangle_11883" data-name="Rectangle 11883" width="15.092" height="15.092" fill="#707070"/>
    </clipPath>
  </defs>
  <g id="Group_21408" data-name="Group 21408" transform="translate(-12.464 -13.211)">
    <g id="Group_21407" data-name="Group 21407" transform="translate(12.464 13.211)" clip-path="url(#clip-path)">
      <g id="Group_21406" data-name="Group 21406" transform="translate(0 0)">
        <g id="Group_21405" data-name="Group 21405" clip-path="url(#clip-path-2)">
          <path id="Path_14045" data-name="Path 14045" d="M27.555,20.756q0,2.786,0,5.572a1.956,1.956,0,0,1-1.97,1.974H14.426a1.958,1.958,0,0,1-1.962-1.966q0-5.58,0-11.159a1.957,1.957,0,0,1,1.961-1.966H25.6a1.955,1.955,0,0,1,1.955,1.957q0,2.794,0,5.588m-1.035.523c0-.043.008-.083.008-.123,0-.267,0-.534,0-.8q0-2.527,0-5.054a.975.975,0,0,0-.609-.987,1.405,1.405,0,0,0-.524-.078H17.485c-.978,0-1.957,0-2.935,0a.977.977,0,0,0-1.059,1.043q0,2.872,0,5.745c0,.045-.024.106.023.13s.083-.033.117-.06q.977-.763,1.953-1.528.939-.735,1.879-1.47a1.119,1.119,0,0,1,.926-.239,1.217,1.217,0,0,1,.68.393c.968,1.036,1.94,2.067,2.9,3.107.116.125.17.107.272-.005q.624-.684,1.264-1.354a1.129,1.129,0,0,1,1.685-.021c.4.395.79.794,1.185,1.19a.3.3,0,0,0,.141.11" transform="translate(-12.463 -13.211)" fill="#707070"/>
          <path id="Path_14046" data-name="Path 14046" d="M220.878,94.843a1.021,1.021,0,1,1-1.029,1.024,1.028,1.028,0,0,1,1.029-1.024" transform="translate(-211.15 -91.419)" fill="#707070"/>
        </g>
      </g>
    </g>
  </g>
</svg>
