<svg xmlns="http://www.w3.org/2000/svg" xmlns:xlink="http://www.w3.org/1999/xlink" width="13" height="13" viewBox="0 0 13 13">
  <defs>
    <clipPath id="clip-path">
      <rect id="Rectangle_11930" data-name="Rectangle 11930" width="13" height="13" fill="none"/>
    </clipPath>
  </defs>
  <g id="Group_24958" data-name="Group 24958" transform="translate(-200.943 -425)">
    <g id="Group_21421" data-name="Group 21421" transform="translate(200.943 425)" clip-path="url(#clip-path)">
      <path id="Path_14103" data-name="Path 14103" d="M13,6.51A6.5,6.5,0,1,1,6.528,0,6.486,6.486,0,0,1,13,6.51M5.928,4.65q0,.539,0,1.078c0,.2,0,.2-.2.2H3.575a.559.559,0,0,0-.461.208.572.572,0,0,0,.441.937c.728,0,1.455,0,2.183,0,.19,0,.19,0,.19.194q0,1.078,0,2.156a.563.563,0,0,0,.206.463.571.571,0,0,0,.939-.436c0-.723,0-1.446,0-2.17,0-.207,0-.207.2-.208H9.42a.566.566,0,0,0,.464-.2.572.572,0,0,0-.444-.942c-.723,0-1.446,0-2.169,0-.2,0-.2,0-.2-.2,0-.714,0-1.428,0-2.142a.574.574,0,1,0-1.145,0c0,.355,0,.709,0,1.064" transform="translate(0 0)" fill="#4e90de"/>
    </g>
  </g>
</svg>
