<svg id="Group_21612" data-name="Group 21612" xmlns="http://www.w3.org/2000/svg" xmlns:xlink="http://www.w3.org/1999/xlink" width="10.17" height="11.553" viewBox="0 0 10.17 11.553">
  <defs>
    <clipPath id="clip-path">
      <rect id="Rectangle_12263" data-name="Rectangle 12263" width="10.17" height="11.553" fill="none"/>
    </clipPath>
  </defs>
  <g id="Group_21563" data-name="Group 21563" clip-path="url(#clip-path)">
    <path id="Path_15655" data-name="Path 15655" d="M32.325,127.947H26.418l-.053-.019a1.011,1.011,0,0,1-.771-.9c-.041-.35-.061-.7-.09-1.054-.058-.68-.117-1.36-.173-2.041-.049-.587-.093-1.174-.141-1.761q-.095-1.138-.194-2.276c-.008-.088.021-.128.111-.12.03,0,.06,0,.09,0h8.35c.034,0,.068,0,.1,0,.08-.006.107.032.1.108-.018.194-.033.389-.049.583q-.063.746-.126,1.491c-.041.5-.079.995-.121,1.492-.049.587-.1,1.174-.149,1.76s-.092,1.167-.142,1.75a1.127,1.127,0,0,1-.144.482,1.1,1.1,0,0,1-.692.5M29.7,123.54q0-1.313,0-2.625a.73.73,0,0,0-.021-.2.318.318,0,0,0-.375-.227c-.176.038-.263.17-.263.4q0,2.637,0,5.273a.657.657,0,0,0,.021.178.318.318,0,0,0,.375.227c.173-.037.263-.169.263-.393q0-1.318,0-2.637m-1.694,2.717c-.029-.445-.057-.864-.083-1.284-.033-.547-.063-1.094-.1-1.641q-.065-1.073-.134-2.146c-.009-.146-.013-.293-.036-.437a.309.309,0,0,0-.343-.271.33.33,0,0,0-.3.361c.01.157.024.314.034.471q.08,1.281.159,2.562c.041.674.079,1.349.119,2.023a3.554,3.554,0,0,0,.037.414.309.309,0,0,0,.347.265.323.323,0,0,0,.292-.318m2.729.009a.325.325,0,0,0,.309.312.328.328,0,0,0,.345-.328c.028-.389.048-.779.072-1.169.025-.42.049-.839.075-1.259q.052-.843.106-1.686c.026-.42.049-.839.08-1.259a.335.335,0,0,0-.291-.4.329.329,0,0,0-.357.326c-.042.625-.078,1.251-.116,1.877-.033.543-.064,1.087-.1,1.63-.039.637-.081,1.274-.124,1.951" transform="translate(-24.288 -116.395)" fill="grey"/>
    <path id="Path_15656" data-name="Path 15656" d="M5.083,2.724H.711A.684.684,0,1,1,.67,1.356c.627-.005,1.255,0,1.882,0,.155,0,.162,0,.155-.158A1.117,1.117,0,0,1,2.972.338.957.957,0,0,1,3.686,0C4.617,0,5.549,0,6.48,0a1.012,1.012,0,0,1,.977.977c0,.075,0,.15,0,.225,0,.144,0,.147.144.148H9.474a.653.653,0,0,1,.5.214.652.652,0,0,1,.131.742.644.644,0,0,1-.629.413q-2.2,0-4.395,0m0-1.37H6.512c.281,0,.254.033.253-.252S6.635.7,6.354.7Q5.08.694,3.807.7a.355.355,0,0,0-.405.4c0,.038,0,.075,0,.113,0,.143,0,.146.146.146H5.08" transform="translate(0 0)" fill="grey"/>
  </g>
</svg>
