<svg xmlns="http://www.w3.org/2000/svg" xmlns:xlink="http://www.w3.org/1999/xlink" width="32" height="31" viewBox="0 0 32 31">
  <defs>
    <clipPath id="clip-path">
      <rect id="Rectangle_12920" data-name="Rectangle 12920" width="20" height="20" transform="translate(-0.4 -0.4)" fill="#fff"/>
    </clipPath>
  </defs>
  <g id="Group_22431" data-name="Group 22431" transform="translate(-9610 6034)">
    <rect id="Rectangle_12922" data-name="Rectangle 12922" width="32" height="31" rx="5" transform="translate(9610 -6034)" fill="#4e90de"/>
    <g id="Group_22430" data-name="Group 22430" transform="translate(9616.4 -6027.6)">
      <g id="Group_22429" data-name="Group 22429" clip-path="url(#clip-path)">
        <path id="Path_16713" data-name="Path 16713" d="M8.91,0H10.5c.312.045.627.073.935.138a9.61,9.61,0,0,1,7.6,6.824,10.017,10.017,0,0,1,.375,1.948V10.5c-.046.318-.072.64-.14.954a9.622,9.622,0,0,1-6.987,7.629,9.953,9.953,0,0,1-1.784.327H8.91a11.177,11.177,0,0,1-1.527-.261A9.634,9.634,0,0,1,.308,12.214,10.493,10.493,0,0,1,0,10.5V8.91c.045-.312.074-.627.139-.935A9.6,9.6,0,0,1,6.872.4,10.008,10.008,0,0,1,8.91,0m.8,18.183A8.472,8.472,0,1,0,1.239,9.748a8.455,8.455,0,0,0,8.467,8.435" fill="#fff"/>
        <path id="Path_16714" data-name="Path 16714" d="M94.637,136.88a.648.648,0,0,1-.379.642.594.594,0,0,1-.694-.145q-1.017-1.007-2.03-2.017-1.094-1.09-2.187-2.182c-.187-.187-.188-.187-.371,0q-2.075,2.066-4.148,4.133a.715.715,0,0,1-.506.261.619.619,0,0,1-.512-.986,1.367,1.367,0,0,1,.154-.167l4.663-4.663a.637.637,0,0,1,1.07,0q2.346,2.345,4.691,4.689a.657.657,0,0,1,.25.435" transform="translate(-79.452 -124.817)" fill="#fff"/>
      </g>
    </g>
  </g>
</svg>
