<svg xmlns="http://www.w3.org/2000/svg" xmlns:xlink="http://www.w3.org/1999/xlink" width="19" height="18" viewBox="0 0 19 18">
  <defs>
    <clipPath id="clip-path">
      <rect id="Rectangle_12923" data-name="Rectangle 12923" width="15.878" height="10.302" fill="#fff"/>
    </clipPath>
  </defs>
  <g id="Group_22434" data-name="Group 22434" transform="translate(-934.44 -554.452)">
    <path id="Rectangle_12924" data-name="Rectangle 12924" d="M3,0H18a1,1,0,0,1,1,1V15a3,3,0,0,1-3,3H1a1,1,0,0,1-1-1V3A3,3,0,0,1,3,0Z" transform="translate(934.44 554.453)" fill="#a8a8a8"/>
    <g id="Group_22433" data-name="Group 22433" transform="translate(936.001 558.302)">
      <g id="Group_22432" data-name="Group 22432" clip-path="url(#clip-path)">
        <path id="Path_16715" data-name="Path 16715" d="M0,4.9A3,3,0,0,1,.782,3.838,13.415,13.415,0,0,1,4.76.772,7.182,7.182,0,0,1,7.986,0a7.383,7.383,0,0,1,3.423.917,14.606,14.606,0,0,1,4.156,3.438,1.637,1.637,0,0,1,.314.548v.5a3.026,3.026,0,0,1-.771,1.053,13.168,13.168,0,0,1-3.977,3.063A7.208,7.208,0,0,1,7.8,10.3a7.4,7.4,0,0,1-3.107-.812A13.434,13.434,0,0,1,.748,6.432c-.108-.118-.211-.241-.318-.36A1.815,1.815,0,0,1,0,5.4ZM7.859,1.011c-.122.008-.324.011-.524.035a7.251,7.251,0,0,0-2.85,1.026A14.024,14.024,0,0,0,1.069,5.033c-.088.1-.055.167.017.252a15.522,15.522,0,0,0,1.574,1.6A10.829,10.829,0,0,0,5.5,8.746a6.081,6.081,0,0,0,2.463.541,6.265,6.265,0,0,0,2.769-.7A13.176,13.176,0,0,0,14.813,5.26a.149.149,0,0,0-.006-.228c-.282-.33-.578-.648-.885-.955a12.156,12.156,0,0,0-3.089-2.312,6.533,6.533,0,0,0-2.975-.755" transform="translate(0 0)" fill="#fff"/>
        <path id="Path_16716" data-name="Path 16716" d="M112.264,41.233a3.441,3.441,0,1,1-3.433,3.453,3.437,3.437,0,0,1,3.433-3.453m-2.413,3.44a2.419,2.419,0,1,0,2.424-2.414,2.4,2.4,0,0,0-2.424,2.414" transform="translate(-104.331 -39.528)" fill="#fff"/>
      </g>
    </g>
  </g>
</svg>
