<svg id="Group_16517" data-name="Group 16517" xmlns="http://www.w3.org/2000/svg" width="38" height="38" viewBox="0 0 38 38">
  <circle id="Ellipse_537" data-name="Ellipse 537" cx="19" cy="19" r="19" fill="#e2dfff"/>
  <g id="male-avatar" transform="translate(13 12)">
    <path id="Path_10848" data-name="Path 10848" d="M13.9,17c-.3-.662-2.116-1.235-2.116-1.235-.97-.342-.976-.683-.976-.683-1.908,3.758-3.355.01-3.355.01-.133.507-2.095,1.1-2.095,1.1a1.9,1.9,0,0,0-.816.551C3.7,18,3.6,20.8,3.6,20.8c.011.638.286.7.286.7a17.211,17.211,0,0,0,5.009,1.025,14.588,14.588,0,0,0,5.428-.892c.332-.209.341-.375.341-.375A9.711,9.711,0,0,0,13.9,17Z" transform="translate(-3.598 -8.104)" fill="#7c71f8"/>
    <path id="Path_10849" data-name="Path 10849" d="M10.57,4.989C10.716,6.2,11.756,7.45,12.7,7.45c1.084,0,2.115-1.316,2.275-2.461a.549.549,0,0,0,.2-.387s.232-.828-.075-.74a2.539,2.539,0,0,0-.226-2.337,2.171,2.171,0,0,0-1.1-.672c-.027-.023-.055-.046-.087-.068,0,0,.017.02.043.055-.044-.012-.092-.024-.138-.035-.042-.044-.09-.09-.144-.139a1.162,1.162,0,0,1,.1.13c-.022,0-.041-.01-.062-.014a1.107,1.107,0,0,0-.134-.166s.023.043.053.112C13.259.622,12.97.377,12.97.1a.807.807,0,0,0-.287.239A.746.746,0,0,1,12.908,0a.818.818,0,0,0-.229.193.727.727,0,0,0-.346.418L12.271.58A.956.956,0,0,1,12.4.371a.962.962,0,0,0-.159.2L12.119.5a.979.979,0,0,1,.153-.212.937.937,0,0,0-.139.139c.02-.081.017-.175-.237.1a2.882,2.882,0,0,0-1.472,1.521,3.69,3.69,0,0,0,.063,1.825c-.366-.173-.117.722-.117.722A.552.552,0,0,0,10.57,4.989Zm-.022-.484Zm2.1-4.266a.739.739,0,0,0-.127.291l-.04-.015A.656.656,0,0,1,12.645.239Z" transform="translate(-7.193 0)" fill="#7c71f8"/>
  </g>
</svg>
