<svg id="Group_21674" data-name="Group 21674" xmlns="http://www.w3.org/2000/svg" xmlns:xlink="http://www.w3.org/1999/xlink" width="307.225" height="409.102" viewBox="0 0 307.225 409.102">
  <defs>
    <clipPath id="clip-path">
      <rect id="Rectangle_11924" data-name="Rectangle 11924" width="307.225" height="409.102" fill="none"/>
    </clipPath>
  </defs>
  <g id="Group_21673" data-name="Group 21673" clip-path="url(#clip-path)">
    <path id="Path_14077" data-name="Path 14077" d="M27.461,409.1c-8.147-2.559-15.43-6.383-20.633-13.5A34.1,34.1,0,0,1,.14,377.948c-.131-1.588-.1-3.192-.1-4.788Q.034,204.715,0,36.269C-.008,21.234,6.319,10.21,19.652,3.324A29.065,29.065,0,0,1,33.1.054Q122.713.046,212.324,0a11.067,11.067,0,0,1,8.186,3.479Q262.151,45.1,303.776,86.74a11.508,11.508,0,0,1,3.45,8.6q-.072,139.906-.073,279.812c-.011,15.575-9.5,28.025-24.433,32.762-1.008.32-1.969.787-2.952,1.185Zm-9.5-204.395q0,84.227.012,168.453c.006,11.7,6.152,18.253,17.346,18.26q118.354.069,236.711,0c10.656-.006,17.19-6.537,17.2-17.189q.071-133.525.1-267.05c0-3.6-1.269-4.5-4.663-4.463-14.9.15-29.8.106-44.707.052-20.879-.076-35.422-14.561-35.509-35.376-.06-14.5-.012-29.007-.015-43.51,0-5.921-.005-5.93-5.861-5.93q-77.439,0-154.88,0c-3.459,0-6.923-.066-10.377.088A15.876,15.876,0,0,0,18.035,33.462c-.091,1.992-.07,3.991-.07,5.986q0,82.631,0,165.259M274.542,84.685,222.6,32.741c0,12.471-.342,25.746.147,38.991.238,6.445,6.933,12.672,13.379,12.847,13.008.355,26.033.106,38.414.106"/>
    <path id="Path_14078" data-name="Path 14078" d="M256.079,268.474c-.054,16.82-18.367,27.349-34.417,19.3A161.427,161.427,0,0,1,195.5,271.006a6.976,6.976,0,0,0-6.216-1.5c-17.478,3.558-34.751,7.811-51.573,13.834-3.339,1.2-4.664,3.744-6.054,6.436a142.045,142.045,0,0,1-24.964,34.936c-6.291,6.377-13.263,11.875-21.807,15.1-9.731,3.671-23.223.166-29.818-7.875-5.4-6.587-5.373-15.832.106-23.292,6.3-8.575,15.467-13.3,24.607-17.914,12.35-6.229,24.847-12.171,37.381-18.024a10.97,10.97,0,0,0,5.971-6.408c6.037-15.084,10.445-30.717,15.826-46.019.839-2.386-.023-4.059-1.33-5.846-5.9-8.071-11.307-16.413-14.942-25.824a50.618,50.618,0,0,1,.43-38.488c3.846-9.507,13.557-14.716,23.767-14.035,17.351,1.157,21.932,10.752,23.793,25.961,1.577,12.881-2.639,24.677-6.019,36.671-.4,1.407-.886,2.788-1.324,4.184-3.53,11.233-3.581,11.28,4.463,20a234.767,234.767,0,0,0,27.2,25.206,6.078,6.078,0,0,0,5.1,1.295c9.341-1.261,18.648-3.055,28.149-2.487,5.588.334,11.125.957,16.352,3.185,7.853,3.346,11.745,9.232,11.485,18.376M146.714,195.908c3.45-12.011,7.756-22.634,5.972-34.437-.762-5.044-1.825-6.787-6.1-7.336-4.312-.554-6.844,1.172-8.171,5.719-3.833,13.137.751,24.366,8.294,36.054m26.71,57.8c-.1-.242-.133-.564-.31-.713-6.61-5.553-12.49-11.854-18.535-17.987-1.1-1.121-1.606-.161-1.919.776q-3.972,11.868-7.9,23.749c-.626,1.886.022,2.483,1.925,1.976q12.664-3.371,25.343-6.691c.637-.168,1.316-.25,1.4-1.11m-68.87,45.227c-10.468,4.868-21.147,9.285-30.616,16a14.043,14.043,0,0,0-2.139,1.783c-1.065,1.136-2.707,2.2-2.179,3.972.513,1.719,2.438,1.873,3.934,2.336,3.478,1.075,6.537-.087,9.436-1.915,8.919-5.626,15.739-13.33,21.564-22.172m113.334-33.879c3.546,2.168,6.157,3.856,8.857,5.388,2.441,1.384,5.044,2.359,7.937,1.751,1.774-.373,3.3-1.08,3.336-3.267.031-2.027-1.4-2.784-3-3.114a59.847,59.847,0,0,0-17.127-.758"/>
  </g>
</svg>
