<svg xmlns="http://www.w3.org/2000/svg" width="40" height="40" viewBox="0 0 40 40">
  <g id="reload" transform="translate(-6210.667 -2647.667)">
    <g id="Group_18254" data-name="Group 18254" transform="translate(6211 2648)">
      <rect id="Rectangle_8816" data-name="Rectangle 8816" width="40" height="40" transform="translate(-0.333 -0.333)" fill="none"/>
    </g>
    <g id="history_1_" data-name="history (1)" transform="translate(6214.172 2653.71)">
      <g id="Group_10279" data-name="Group 10279" transform="translate(0 0)">
        <g id="Group_10278" data-name="Group 10278" transform="translate(0 0)">
          <path id="Path_10828" data-name="Path 10828" d="M131.28,375.691l-1.568,1.388a14.417,14.417,0,0,0,1.622,1.56l1.325-1.62A12.082,12.082,0,0,1,131.28,375.691Z" transform="translate(-121.239 -353.609)" fill="#6c6b6c"/>
          <path id="Path_10829" data-name="Path 10829" d="M94.689,326.187l-1.921.825a13.924,13.924,0,0,0,1.054,1.994l1.763-1.12A11.993,11.993,0,0,1,94.689,326.187Z" transform="translate(-86.709 -307.339)" fill="#6c6b6c"/>
          <path id="Path_10830" data-name="Path 10830" d="M26.1,39.53A14.093,14.093,0,0,0,5.057,49.873L1.478,46.294,0,47.772l5.964,5.964,5.964-5.964-1.478-1.478L7.218,49.522A12.006,12.006,0,1,1,13,62.134l-1.05,1.807A14.109,14.109,0,0,0,26.1,39.53Z" transform="translate(0 -37.627)" fill="#6c6b6c"/>
          <path id="Path_10831" data-name="Path 10831" d="M267.312,109.627v11.5l4.6,3.449,1.254-1.672-3.762-2.822V109.627Z" transform="translate(-249.852 -104.924)" fill="#6c6b6c"/>
        </g>
      </g>
    </g>
  </g>
</svg>
