<svg xmlns="http://www.w3.org/2000/svg" width="54" height="54" viewBox="0 0 54 54">
  <g id="Group_17090" data-name="Group 17090" transform="translate(-8723 11052)">
    <g id="Group_7895" data-name="Group 7895" transform="translate(8439 -11245)">
      <circle id="Ellipse_1144" data-name="Ellipse 1144" cx="27" cy="27" r="27" transform="translate(284 193)" fill="#d9f8e0"/>
    </g>
    <g id="group" transform="translate(8735 -11075.84)">
      <g id="Group_17075" data-name="Group 17075" transform="translate(22.938 52.337)">
        <g id="Group_17074" data-name="Group 17074" transform="translate(0 0)">
          <path id="Path_11422" data-name="Path 11422" d="M400.773,273.32h-2.279a5.928,5.928,0,0,1,.359,2.038v8.614a2.54,2.54,0,0,1-.146.851h3.768a2.556,2.556,0,0,0,2.553-2.553v-4.7A4.259,4.259,0,0,0,400.773,273.32Z" transform="translate(-398.494 -273.32)" fill="#25bb48"/>
        </g>
      </g>
      <g id="Group_17077" data-name="Group 17077" transform="translate(0 52.337)">
        <g id="Group_17076" data-name="Group 17076">
          <path id="Path_11423" data-name="Path 11423" d="M6.174,275.359a5.929,5.929,0,0,1,.359-2.038H4.254A4.259,4.259,0,0,0,0,277.575v4.7a2.555,2.555,0,0,0,2.553,2.553H6.321a2.541,2.541,0,0,1-.146-.851Z" transform="translate(0 -273.321)" fill="#25bb48"/>
        </g>
      </g>
      <g id="Group_17079" data-name="Group 17079" transform="translate(7.876 50.121)">
        <g id="Group_17078" data-name="Group 17078">
          <path id="Path_11424" data-name="Path 11424" d="M146.294,234.815h-5.211a4.259,4.259,0,0,0-4.254,4.254v8.614a.851.851,0,0,0,.851.851H149.7a.851.851,0,0,0,.851-.851v-8.614A4.259,4.259,0,0,0,146.294,234.815Z" transform="translate(-136.829 -234.815)" fill="#25bb48"/>
        </g>
      </g>
      <g id="Group_17081" data-name="Group 17081" transform="translate(9.619 38.84)">
        <g id="Group_17080" data-name="Group 17080" transform="translate(0 0)">
          <path id="Path_11425" data-name="Path 11425" d="M172.23,38.84a5.116,5.116,0,1,0,5.116,5.116A5.122,5.122,0,0,0,172.23,38.84Z" transform="translate(-167.114 -38.84)" fill="#25bb48"/>
        </g>
      </g>
      <g id="Group_17083" data-name="Group 17083" transform="translate(1.925 43.609)">
        <g id="Group_17082" data-name="Group 17082" transform="translate(0 0)">
          <path id="Path_11426" data-name="Path 11426" d="M37.269,121.689a3.824,3.824,0,1,0,3.826,3.826A3.831,3.831,0,0,0,37.269,121.689Z" transform="translate(-33.443 -121.689)" fill="#25bb48"/>
        </g>
      </g>
      <g id="Group_17085" data-name="Group 17085" transform="translate(19.894 43.609)">
        <g id="Group_17084" data-name="Group 17084" transform="translate(0 0)">
          <path id="Path_11427" data-name="Path 11427" d="M349.433,121.689a3.826,3.826,0,1,0,3.826,3.826A3.831,3.831,0,0,0,349.433,121.689Z" transform="translate(-345.607 -121.689)" fill="#25bb48"/>
        </g>
      </g>
    </g>
  </g>
</svg>
