<svg xmlns="http://www.w3.org/2000/svg" width="51" height="51" viewBox="0 0 51 51">
  <g id="Group_21243" data-name="Group 21243" transform="translate(-712 -222)">
    <rect id="Rectangle_11801" data-name="Rectangle 11801" width="51" height="51" rx="5" transform="translate(712 222)" fill="#4E90DE"/>
    <rect id="Rectangle_11802" data-name="Rectangle 11802" width="43" height="39" rx="3" transform="translate(716 230)" fill="#fff"/>
    <rect id="Rectangle_11803" data-name="Rectangle 11803" width="17" height="2" rx="1" transform="translate(726 226)" fill="#fff"/>
    <rect id="Rectangle_11804" data-name="Rectangle 11804" width="3" height="2" rx="1" transform="translate(717 226)" fill="#fff"/>
    <rect id="Rectangle_11805" data-name="Rectangle 11805" width="12" height="14" transform="translate(731 235)" fill="#7ac9c1"/>
    <rect id="Rectangle_11809" data-name="Rectangle 11809" width="12" height="1" rx="0.5" transform="translate(717 235)" fill="#7ac9c1"/>
    <rect id="Rectangle_11810" data-name="Rectangle 11810" width="12" height="1" rx="0.5" transform="translate(717 240)" fill="#7ac9c1"/>
    <rect id="Rectangle_11811" data-name="Rectangle 11811" width="12" height="1" rx="0.5" transform="translate(717 245)" fill="#7ac9c1"/>
    <rect id="Rectangle_11812" data-name="Rectangle 11812" width="12" height="1" rx="0.5" transform="translate(717 250)" fill="#7ac9c1"/>
    <rect id="Rectangle_11808" data-name="Rectangle 11808" width="12" height="14" transform="translate(731 253)" fill="#7ac9c1"/>
    <rect id="Rectangle_11806" data-name="Rectangle 11806" width="13" height="14" transform="translate(744 235)" fill="#7ac9c1"/>
    <rect id="Rectangle_11807" data-name="Rectangle 11807" width="13" height="14" transform="translate(744 253)" fill="#7ac9c1"/>
  </g>
</svg>
