<svg xmlns="http://www.w3.org/2000/svg" xmlns:xlink="http://www.w3.org/1999/xlink" width="19.142" height="19.141" viewBox="0 0 19.142 19.141">
  <defs>
    <clipPath id="clip-path">
      <rect id="Rectangle_12421" data-name="Rectangle 12421" width="19.142" height="19.141" fill="none"/>
    </clipPath>
  </defs>
  <g id="Group_21692" data-name="Group 21692" transform="translate(0 0)">
    <g id="Group_21645" data-name="Group 21645" transform="translate(0 0)" clip-path="url(#clip-path)">
      <path id="Path_15757" data-name="Path 15757" d="M9.567,19.141a9.571,9.571,0,1,1,9.575-9.6,9.587,9.587,0,0,1-9.575,9.6m2.71-8.727c.542,0,1.085,0,1.627,0a.842.842,0,1,0,0-1.684c-1.065,0-2.129,0-3.194,0-.294,0-.3,0-.3-.291q0-1.587,0-3.173a.824.824,0,0,0-.307-.68.842.842,0,0,0-1.379.65c0,1.071,0,2.143,0,3.214,0,.279,0,.28-.286.28q-1.587,0-3.173,0a.829.829,0,0,0-.681.3.842.842,0,0,0,.641,1.382c1.065.006,2.129,0,3.194,0,.305,0,.306,0,.306.3q0,1.576,0,3.153a.834.834,0,0,0,.3.683.8.8,0,0,0,.894.124.793.793,0,0,0,.492-.757c.007-1.078,0-2.156,0-3.234,0-.267,0-.27.276-.27h1.587" transform="translate(0 0)" fill="#a8a8a8"/>
    </g>
  </g>
</svg>
