<svg id="Group_31798" data-name="Group 31798" xmlns="http://www.w3.org/2000/svg" xmlns:xlink="http://www.w3.org/1999/xlink" width="107.792" height="119.957" viewBox="0 0 107.792 119.957">
  <defs>
    <clipPath id="clip-path">
      <rect id="Rectangle_16113" data-name="Rectangle 16113" width="107.792" height="119.957" fill="#fff"/>
    </clipPath>
  </defs>
  <g id="Group_31796" data-name="Group 31796" clip-path="url(#clip-path)">
    <path id="Path_31941" data-name="Path 31941" d="M.005,62.041q0-21.918,0-43.836A17.9,17.9,0,0,1,14.518.415,20.576,20.576,0,0,1,18.687,0Q53.91,0,89.133.009c9.525.007,16.9,6.176,18.5,15.438a14.8,14.8,0,0,1,.146,2.51q.011,44.256,0,88.512A12,12,0,0,1,90.161,117.28c-1.457-.731-2.866-1.566-4.264-2.408-5.484-3.3-11.009-3.363-16.35.135a27.964,27.964,0,0,1-15.776,4.95,27.5,27.5,0,0,1-15.262-4.793c-5.585-3.688-11.262-3.636-16.948-.078-2.762,1.727-5.5,3.465-8.961,3.633A12.022,12.022,0,0,1,.018,107C-.015,92.012.008,77.027.005,62.041M53.9,35.856v0c8.07,0,16.141.031,24.211-.017a5.493,5.493,0,0,0,5.411-4.9A5.714,5.714,0,0,0,79.2,24.483a11.177,11.177,0,0,0-2.636-.265q-12.805.013-25.611,0-10.007,0-20.013,0a7.219,7.219,0,0,0-4.376,1.193,5.842,5.842,0,0,0-2.14,6.355,5.556,5.556,0,0,0,5.41,4.074c8.023.033,16.047.012,24.071.012m-.022,12.407c-8.07,0-16.141-.031-24.211.017a5.49,5.49,0,0,0-5.4,4.906A5.716,5.716,0,0,0,28.6,59.632a11.277,11.277,0,0,0,2.637.264q14.415-.013,28.83-.005H77a7.085,7.085,0,0,0,4.12-1.118,5.839,5.839,0,0,0,2.245-6.439,5.513,5.513,0,0,0-5.276-4.057c-8.07-.038-16.141-.014-24.212-.013M41.849,83.73c3.874,0,7.749.012,11.623,0,3.622-.015,6.214-2.435,6.227-5.778s-2.573-5.826-6.168-5.833q-11.624-.024-23.247,0a5.808,5.808,0,1,0-.059,11.609c3.874.021,7.749,0,11.623.006" transform="translate(0 0)" fill="#e395b5"/>
  </g>
</svg>
