<svg xmlns="http://www.w3.org/2000/svg" width="24" height="24" viewBox="0 0 24 24">
  <g id="Calendar" transform="translate(-6295 12045)">
    <rect id="Rectangle_10932" data-name="Rectangle 10932" width="24" height="24" transform="translate(6295 -12045)" fill="none"/>
    <g id="Group_19515" data-name="Group 19515" transform="translate(5059.331 -12399.779)">
      <path id="Path_13673" data-name="Path 13673" d="M1257.661,516.872v.22q0,3.894,0,7.788a2.84,2.84,0,0,1-2.3,2.826,3,3,0,0,1-.612.058q-7.085,0-14.169,0a2.853,2.853,0,0,1-2.91-2.906q0-3.883,0-7.767v-.221Zm-10.907,5.589c-.408-.412-.787-.806-1.178-1.187a.9.9,0,0,0-1.279,1.27q.906.928,1.835,1.834a.873.873,0,0,0,1.246,0q1.835-1.819,3.654-3.654a.826.826,0,0,0,.233-.782.861.861,0,0,0-.636-.7.881.881,0,0,0-.915.247q-1.084,1.082-2.165,2.165C1247.289,521.918,1247.031,522.181,1246.754,522.461Z" transform="translate(0 -150.993)" fill="#007985"/>
      <path id="Path_13674" data-name="Path 13674" d="M1237.672,364.04v-.686c0-.617,0-1.234,0-1.852a2.829,2.829,0,0,1,2.51-2.876,13.473,13.473,0,0,1,1.552-.021h.486c0-.307,0-.6,0-.884a.911.911,0,0,1,.9-.94.926.926,0,0,1,.925.918c.008.29,0,.581,0,.889h2.713c0-.281-.005-.568,0-.856a.9.9,0,0,1,.721-.924.884.884,0,0,1,1.079.755c.03.336.006.678.006,1.029h2.728c0-.309-.009-.612,0-.914a.924.924,0,0,1,.839-.894.9.9,0,0,1,.956.706,3.1,3.1,0,0,1,.024.572c0,.17,0,.34,0,.544h1.7a2.823,2.823,0,0,1,2.84,2.706c.037.885.008,1.773.008,2.66a.315.315,0,0,1-.018.069Z" transform="translate(-0.002)" fill="#007985"/>
    </g>
  </g>
</svg>
