<svg id="company_profile" xmlns="http://www.w3.org/2000/svg" xmlns:xlink="http://www.w3.org/1999/xlink" width="23" height="22.922" viewBox="0 0 23 22.922">
  <defs>
    <clipPath id="clip-path">
      <rect id="Rectangle_9646" data-name="Rectangle 9646" width="23" height="22.922" fill="#734d9c"/>
    </clipPath>
  </defs>
  <g id="Group_18813" data-name="Group 18813" clip-path="url(#clip-path)">
    <path id="Path_13593" data-name="Path 13593" d="M12.563,1.633c-.183-.039-.368-.067-.553-.095Q8.558,1.012,5.106.489C4.093.337,3.079.185,2.066.026A1.7,1.7,0,0,0,0,1.427V22.181a.825.825,0,0,0,.951.741H3.8c.352,0,.356,0,.357-.367,0-.606,0-1.212,0-1.819,0-.965-.007-1.931,0-2.9a1.554,1.554,0,0,1,1.472-1.553c.868-.024,1.736-.021,2.6,0a1.559,1.559,0,0,1,1.468,1.288,5.5,5.5,0,0,1,.059.783q-.005,2.111,0,4.221c0,.33.018.344.337.344h3.435c.414,0,.416,0,.416-.423q0-9.576,0-19.153a1.7,1.7,0,0,0-1.391-1.714M3.809,3.985c.247-.006.494,0,.741,0s.494,0,.741,0a.7.7,0,0,1,.688.66.678.678,0,0,1-.617.744,11.955,11.955,0,0,1-1.614,0,.682.682,0,0,1-.624-.719.7.7,0,0,1,.686-.686m0,2.875c.247-.006.494,0,.741,0s.494,0,.741,0a.7.7,0,0,1,.685.663.678.678,0,0,1-.62.742,11.936,11.936,0,0,1-1.614,0,.683.683,0,0,1-.621-.721.694.694,0,0,1,.689-.683m1.564,7.152a10.782,10.782,0,0,1-1.658,0,.679.679,0,0,1-.594-.722.692.692,0,0,1,.671-.678c.254-.008.509,0,.763,0s.494-.005.741,0a.7.7,0,0,1,.68.645.677.677,0,0,1-.6.757m0-2.875a10.79,10.79,0,0,1-1.658,0,.679.679,0,0,1-.594-.721.692.692,0,0,1,.67-.678c.254-.008.509,0,.763,0s.494-.005.741,0a.7.7,0,0,1,.68.644.677.677,0,0,1-.6.757m3.3-7.153c.456,0,.913,0,1.37,0A.707.707,0,0,1,10.1,5.4c-.253.016-.509,0-.763,0,0,0,0,0,0,0-.224,0-.449.005-.673,0a.712.712,0,1,1,.012-1.42m0,2.875c.456,0,.913,0,1.37,0A.707.707,0,0,1,10.1,8.272c-.253.016-.509,0-.763,0v0c-.224,0-.449.005-.673,0a.712.712,0,1,1,.012-1.42M7.908,10.4a.715.715,0,0,1,.708-.671c.247,0,.494,0,.741,0s.479,0,.718,0a.718.718,0,0,1,.7.676.7.7,0,0,1-.642.729c-.53.022-1.063.022-1.593,0a.694.694,0,0,1-.637-.734m2.232,3.61c-.53.023-1.063.023-1.593,0a.694.694,0,0,1-.64-.732.715.715,0,0,1,.705-.674c.247,0,.494,0,.741,0s.479,0,.718,0a.719.719,0,0,1,.707.673.7.7,0,0,1-.639.732" transform="translate(0 0)" fill="#734d9c"/>
    <path id="Path_13594" data-name="Path 13594" d="M255.381,150.984a1.48,1.48,0,0,0-.022-.312,1.744,1.744,0,0,0-1.527-1.4c-2.124-.434-4.243-.885-6.364-1.333-.175-.037-.243-.022-.242.189.008,2.267.005,4.535.005,6.8s0,4.535,0,6.8c0,.155.02.215.2.214,2.088-.008,4.176,0,6.263-.006a1.66,1.66,0,0,0,1.69-1.688q0-4.636,0-9.272m-3.625,8.085c-.231.005-.463,0-.694,0s-.463.005-.694,0a.732.732,0,0,1-.734-.72.725.725,0,0,1,.738-.714c.463-.007.926-.007,1.389,0a.718.718,0,1,1,0,1.435m.015-2.876c-.231.007-.463,0-.694,0s-.463,0-.694,0a.733.733,0,0,1-.75-.727.726.726,0,0,1,.745-.707q.694-.01,1.389,0a.717.717,0,1,1,0,1.434m0-2.875c-.231.007-.463,0-.694,0s-.463,0-.694,0a.734.734,0,0,1-.751-.726.726.726,0,0,1,.744-.708q.694-.01,1.389,0a.717.717,0,1,1,.007,1.434" transform="translate(-232.382 -139.044)" fill="#734d9c"/>
  </g>
</svg>
