<svg xmlns="http://www.w3.org/2000/svg" width="22" height="22" viewBox="0 0 22 22">
  <g id="Group_19919" data-name="Group 19919" transform="translate(-104 -172)">
    <rect id="Rectangle_11114" data-name="Rectangle 11114" width="22" height="22" transform="translate(104 172)" fill="none"/>
    <g id="Group_19890" data-name="Group 19890" transform="translate(-632 -3.701)">
      <path id="Path_13696" data-name="Path 13696" d="M737,196.892V177.983a.449.449,0,0,0,.035-.073,1.521,1.521,0,0,1,1.77-1.188c1.64.238,3.278.493,4.916.743,1.49.227,2.978.464,4.47.682a1.567,1.567,0,0,1,1.5,1.713q0,8.715,0,17.429v.248h-3.715c0-.07-.011-.13-.011-.19q0-.718,0-1.435c0-.957.005-1.914,0-2.871a1.513,1.513,0,0,0-1.622-1.609c-.663,0-1.327.023-1.989-.006a1.568,1.568,0,0,0-1.634,1.628c.029,1.414.008,2.83.008,4.244v.247c-1.006,0-1.983.009-2.959-.009a.791.791,0,0,1-.454-.2A2.187,2.187,0,0,1,737,196.892Zm8.526-15.317v0c.232,0,.465.012.7,0a.647.647,0,0,0-.05-1.292c-.417,0-.833,0-1.25,0a.651.651,0,1,0-.011,1.3C745.116,181.58,745.321,181.575,745.526,181.575Zm0,2.625v0c.232,0,.465.012.7,0a.647.647,0,0,0-.05-1.292c-.417,0-.833,0-1.25,0a.651.651,0,1,0-.011,1.3C745.116,184.2,745.321,184.2,745.526,184.2Zm0,1.325c-.219,0-.437,0-.656,0a.654.654,0,0,0-.648.612.635.635,0,0,0,.581.672c.484.022.97.022,1.454,0a.636.636,0,0,0,.588-.666.656.656,0,0,0-.642-.619C745.975,185.521,745.75,185.525,745.524,185.525Zm.017,2.625c-.225,0-.451,0-.676,0a.653.653,0,0,0-.645.616.635.635,0,0,0,.585.669c.484.021.97.021,1.454,0a.635.635,0,0,0,.584-.669.657.657,0,0,0-.646-.616C745.978,188.146,745.76,188.15,745.541,188.15Zm-4.387-7.875c-.225,0-.451,0-.676,0a.633.633,0,0,0-.626.607.618.618,0,0,0,.569.676c.49.022.983.022,1.473,0a.613.613,0,0,0,.565-.679.639.639,0,0,0-.629-.6C741.6,180.27,741.38,180.275,741.154,180.275Zm0,2.625c-.225,0-.451,0-.676,0a.635.635,0,0,0-.63.625.617.617,0,0,0,.568.658c.49.022.983.023,1.473,0a.613.613,0,0,0,.567-.676.639.639,0,0,0-.627-.606C741.608,182.9,741.382,182.9,741.157,182.9Zm0,2.626c-.232,0-.465-.006-.7,0a.632.632,0,0,0-.613.62.611.611,0,0,0,.543.658c.5.025,1.01.026,1.514,0a.612.612,0,0,0,.55-.69.64.64,0,0,0-.622-.589C741.612,185.52,741.386,185.525,741.161,185.525Zm0,2.625c-.232,0-.464-.006-.7,0a.633.633,0,0,0-.614.619.611.611,0,0,0,.543.658c.5.025,1.01.026,1.514,0a.612.612,0,0,0,.551-.689.64.64,0,0,0-.621-.59C741.612,188.145,741.387,188.15,741.161,188.151Z" transform="translate(0 0)" fill="#fff"/>
      <path id="Path_13697" data-name="Path 13697" d="M984.639,336.086V323.271c.326.065.637.124.946.189q2.611.548,5.221,1.1a1.506,1.506,0,0,1,1.262,1.559q0,4.194,0,8.387a1.519,1.519,0,0,1-1.572,1.579q-2.82,0-5.639,0Zm3.488-7.874c.212,0,.424,0,.636,0a.657.657,0,1,0-.01-1.312c-.417-.005-.834-.006-1.251,0a.656.656,0,1,0,.01,1.312C987.717,328.215,987.922,328.212,988.127,328.212Zm0,2.625c.219,0,.438.006.656,0a.655.655,0,1,0-.009-1.31c-.424-.008-.848-.007-1.271,0a.656.656,0,1,0,.009,1.312C987.716,330.84,987.921,330.837,988.127,330.836Zm.007,2.625c.212,0,.424,0,.636,0a.656.656,0,1,0,0-1.311q-.636-.01-1.271,0a.661.661,0,0,0-.675.656.668.668,0,0,0,.677.655C987.709,333.466,987.922,333.462,988.133,333.462Z" transform="translate(-234.069 -138.538)" fill="#fff"/>
    </g>
  </g>
</svg>
