<svg xmlns="http://www.w3.org/2000/svg" width="24" height="24" viewBox="0 0 24 24">
  <g id="datainput-icon" transform="translate(-6258 12390)">
    <g id="Group_18240" data-name="Group 18240" transform="translate(44)">
      <g id="Group_18237" data-name="Group 18237" transform="translate(-44 1)">
        <rect id="Rectangle_9414" data-name="Rectangle 9414" width="24" height="24" transform="translate(6258 -12391)" fill="none"/>
      </g>
    </g>
    <g id="Iconly_Bulk_Paper" data-name="Iconly/Bulk/Paper" transform="translate(6260 -12388.999)">
      <g id="Paper" transform="translate(-0.001 -0.001)">
        <path id="Subtraction_7" data-name="Subtraction 7" d="M14.04,22H5.226A5.213,5.213,0,0,1,0,16.811V4.959A4.984,4.984,0,0,1,5,0h5.919A.506.506,0,0,1,11.422.5V4.043a3.69,3.69,0,0,0,3.7,3.668c.477,0,.895,0,1.249.007h.092l.667,0c.316,0,.86,0,1.385-.008a.5.5,0,0,1,.509.5v8.834A4.973,4.973,0,0,1,14.04,22ZM6.125,14.18a.821.821,0,1,0,0,1.642H12.22a.821.821,0,1,0,0-1.642Zm0-5.491a.819.819,0,1,0,0,1.638H9.916a.819.819,0,1,0,0-1.638Z" transform="translate(0 0)" fill="#ff8a00" stroke="rgba(0,0,0,0)" stroke-miterlimit="10" stroke-width="1"/>
        <path id="Fill_1" data-name="Fill 1" d="M.919.162A.535.535,0,0,0,0,.53v2.9A2.248,2.248,0,0,0,2.257,5.647c.78.009,1.863.011,2.783.009a.523.523,0,0,0,.384-.889C4.243,3.561,2.129,1.4.919.162" transform="translate(13.164 0.463)" fill="#ff8a00" opacity="0.4"/>
      </g>
    </g>
  </g>
</svg>
