<svg xmlns="http://www.w3.org/2000/svg" xmlns:xlink="http://www.w3.org/1999/xlink" width="16.794" height="21.999" viewBox="0 0 16.794 21.999">
  <defs>
    <clipPath id="clip-path">
      <rect id="Rectangle_12422" data-name="Rectangle 12422" width="16.794" height="21.999" fill="#5a76b2"/>
    </clipPath>
    <clipPath id="clip-path-2">
      <rect id="Rectangle_12423" data-name="Rectangle 12423" width="6.86" height="6.864" fill="#fff"/>
    </clipPath>
  </defs>
  <g id="Group_24952" data-name="Group 24952" transform="translate(0 0.001)">
    <g id="Group_21648" data-name="Group 21648" transform="translate(0 -0.001)">
      <g id="Group_21647" data-name="Group 21647" clip-path="url(#clip-path)">
        <path id="Path_15758" data-name="Path 15758" d="M15.227,22H1.564l-.244-.082A1.932,1.932,0,0,1,0,20.113Q0,11,0,1.886A1.812,1.812,0,0,1,.183,1.1,2.038,2.038,0,0,1,1.564,0h8.765c.005.1.016.2.016.3q0,2.04,0,4.08A1.988,1.988,0,0,0,10.964,5.9a2.012,2.012,0,0,0,1.436.523c1.374,0,2.749,0,4.123,0,.2,0,.271.056.271.265q-.008,6.722,0,13.444a1.759,1.759,0,0,1-.165.727A2.024,2.024,0,0,1,15.227,22M8.408,9.083c-1.266,0-2.533,0-3.8,0a.63.63,0,1,0-.015,1.252q3.8.006,7.6,0a.652.652,0,0,0,.693-.619.66.66,0,0,0-.7-.635c-.064,0-.129,0-.193,0H8.408m-.021,3.834H9.739c.823,0,1.645,0,2.468,0a.649.649,0,0,0,.678-.633.659.659,0,0,0-.672-.619c-.029,0-.057,0-.086,0H4.659a.638.638,0,1,0-.006,1.255H8.387M8.4,15.494h3.713c.462,0,.771-.254.772-.627s-.31-.626-.771-.629H4.71c-.493,0-.814.255-.8.637s.318.618.8.618H8.4M7.1,18.072h0c.844,0,1.688.005,2.532,0a.648.648,0,0,0,.678-.632.658.658,0,0,0-.671-.619c-.064,0-.129,0-.193,0H7.018c-.808,0-1.616,0-2.424,0a.629.629,0,1,0-.007,1.253c.057,0,.114,0,.172,0H7.1" transform="translate(0)" fill="#5a76b2"/>
        <path id="Path_15759" data-name="Path 15759" d="M205,12.184c-.622,0-1.245,0-1.867,0a.657.657,0,0,1-.735-.724q0-1.91,0-3.819c0-.067-.034-.163.04-.2s.121.058.169.105q2.209,2.206,4.415,4.415c.049.049.139.1.116.167-.031.093-.137.05-.208.05-.644,0-1.287,0-1.931,0" transform="translate(-190.801 -7.012)" fill="#5a76b2"/>
      </g>
    </g>
    <g id="Group_21650" data-name="Group 21650" transform="translate(1.843 0.999)">
      <g id="Group_21649" data-name="Group 21649" transform="translate(0 0)" clip-path="url(#clip-path-2)">
        <path id="Path_15760" data-name="Path 15760" d="M2.205,3.1c-.406,0-.813,0-1.219,0a.107.107,0,0,1-.121-.086C.586,2.171.308,1.329.023.489A.36.36,0,0,1,.315,0,.449.449,0,0,1,.567.066l2.159,1.08L6.614,3.089a.407.407,0,0,1,.228.234.347.347,0,0,1-.135.4A1.269,1.269,0,0,1,6.56,3.8l-6,3a.42.42,0,0,1-.252.062A.348.348,0,0,1,.017,6.4c.051-.169.11-.335.166-.5.225-.677.452-1.353.675-2.031a.13.13,0,0,1,.148-.106q1.2,0,2.406,0a.333.333,0,1,0,0-.665H2.205" transform="translate(0 0.001)" fill="#fff"/>
      </g>
    </g>
  </g>
</svg>
