<svg xmlns="http://www.w3.org/2000/svg" xmlns:xlink="http://www.w3.org/1999/xlink" width="36" height="36" viewBox="0 0 36 36">
  <defs>
    <clipPath id="clip-path">
      <rect id="Rectangle_9486" data-name="Rectangle 9486" width="16.22" height="15.376" fill="#b8c1c7"/>
    </clipPath>
  </defs>
  <g id="download" transform="translate(0.325)">
    <g id="Ellipse_1252" data-name="Ellipse 1252" transform="translate(-0.325)" fill="#fff" stroke="#b8c1c7" stroke-width="1">
      <circle cx="18" cy="18" r="18" stroke="none"/>
      <circle cx="18" cy="18" r="17.5" fill="none"/>
    </g>
    <g id="Group_18454" data-name="Group 18454" transform="translate(9.665 10.544)">
      <g id="Group_18453" data-name="Group 18453" clip-path="url(#clip-path)">
        <path id="Path_13545" data-name="Path 13545" d="M68.092,9.318V9.1q0-4.087,0-8.174a.93.93,0,0,1,.168-.607.814.814,0,0,1,.868-.281A.8.8,0,0,1,69.7.754c0,.082,0,.164,0,.246q0,4.049,0,8.1v.275c.083-.078.131-.121.177-.167q1.235-1.236,2.47-2.471a.812.812,0,1,1,1.194,1.1c-.158.172-.329.333-.495.5L69.559,11.82a.829.829,0,0,1-1.321,0Q66.276,9.86,64.314,7.9a.814.814,0,1,1,1.132-1.165c.674.669,1.343,1.342,2.013,2.014l.587.59.045-.023" transform="translate(-60.786 0)" fill="#b8c1c7"/>
        <path id="Path_13546" data-name="Path 13546" d="M8.111,273.053q-3.621,0-7.242,0a.808.808,0,0,1-.814-1.089.8.8,0,0,1,.723-.529c.063-.006.127,0,.19,0q7.147,0,14.294,0a1.412,1.412,0,0,1,.412.049.794.794,0,0,1,.537.9.813.813,0,0,1-.744.673c-.069,0-.139,0-.209,0H8.111" transform="translate(0 -257.677)" fill="#b8c1c7"/>
      </g>
    </g>
  </g>
</svg>
