<svg id="Group_21734" data-name="Group 21734" xmlns="http://www.w3.org/2000/svg" xmlns:xlink="http://www.w3.org/1999/xlink" width="17.081" height="19.001" viewBox="0 0 17.081 19.001">
  <defs>
    <clipPath id="clip-path">
      <rect id="Rectangle_12542" data-name="Rectangle 12542" width="17.081" height="19.001" fill="none"/>
    </clipPath>
  </defs>
  <g id="Group_21726" data-name="Group 21726" clip-path="url(#clip-path)">
    <path id="Path_15768" data-name="Path 15768" d="M12.564,0a3.182,3.182,0,0,1,1.45.664A2.881,2.881,0,0,1,15.1,2.913c.01,2.375,0,4.749,0,7.124a.758.758,0,0,1-1.49.216,2.022,2.022,0,0,1-.04-.479c0-2.239,0-4.477,0-6.716a1.457,1.457,0,0,0-.889-1.435,1.543,1.543,0,0,0-.669-.125q-4.462,0-8.924,0A1.488,1.488,0,0,0,1.519,3.076q0,6.428,0,12.857a1.482,1.482,0,0,0,1.1,1.511,2.051,2.051,0,0,0,.514.06H6.1c.495,0,.792.188.888.562A.79.79,0,0,1,6.477,19H2.544c-.054-.014-.107-.03-.161-.041A3.033,3.033,0,0,1,0,15.982c.019-4.352,0-8.7.009-13.056A2.875,2.875,0,0,1,1.15.615,3.187,3.187,0,0,1,2.544,0Z" transform="translate(0)" fill="#a2a2a2"/>
    <path id="Path_15769" data-name="Path 15769" d="M187.4,324.6a7.159,7.159,0,0,1-4.451-3.123.71.71,0,0,1-.036-.9,8.277,8.277,0,0,1,3.051-2.726,4.391,4.391,0,0,1,4.541.35,9.014,9.014,0,0,1,2.38,2.313.723.723,0,0,1,.025.93,8.407,8.407,0,0,1-3.111,2.741,5.627,5.627,0,0,1-1.36.412Zm.462-5.7a3.293,3.293,0,0,0-.842.158,6.017,6.017,0,0,0-2.449,1.865c-.054.062-.035.107.011.16a6.92,6.92,0,0,0,1.861,1.6,2.833,2.833,0,0,0,2.634.154,6.389,6.389,0,0,0,2.191-1.765c.065-.074.022-.12-.024-.174a7.708,7.708,0,0,0-1.408-1.31,3.433,3.433,0,0,0-1.974-.686" transform="translate(-175.989 -305.597)" fill="#a2a2a2"/>
    <path id="Path_15770" data-name="Path 15770" d="M84.673,121.16q-1.919,0-3.838,0a.756.756,0,0,1-.194-1.484.95.95,0,0,1,.238-.024q3.792,0,7.584,0a.755.755,0,1,1-.007,1.509q-1.891,0-3.783,0" transform="translate(-77.117 -115.21)" fill="#a2a2a2"/>
    <path id="Path_15771" data-name="Path 15771" d="M84.542,201.128q-1.9,0-3.8,0a.734.734,0,0,1-.722-.507.758.758,0,0,1,.253-.849.783.783,0,0,1,.521-.155q2.883,0,5.767,0c.6,0,1.2,0,1.8,0a.755.755,0,1,1,0,1.509q-1.91,0-3.82,0" transform="translate(-77.009 -192.209)" fill="#a2a2a2"/>
    <path id="Path_15772" data-name="Path 15772" d="M82.855,279.64c.637,0,1.273,0,1.91,0a.755.755,0,1,1,.008,1.509q-1.92,0-3.839,0a.755.755,0,1,1-.008-1.509c.643,0,1.286,0,1.929,0" transform="translate(-77.173 -269.262)" fill="#a2a2a2"/>
    <path id="Path_15773" data-name="Path 15773" d="M285.622,379.508a1.423,1.423,0,1,1,1.424-1.417,1.4,1.4,0,0,1-1.424,1.417" transform="translate(-273.654 -362.685)" fill="#b9b9b9"/>
  </g>
</svg>
