<svg xmlns="http://www.w3.org/2000/svg" xmlns:xlink="http://www.w3.org/1999/xlink" width="34" height="34" viewBox="0 0 34 34">
  <defs>
    <clipPath id="clip-path">
      <rect id="Rectangle_13140" data-name="Rectangle 13140" width="20.666" height="20.659" fill="#fff"/>
    </clipPath>
  </defs>
  <g id="Group_24226" data-name="Group 24226" transform="translate(-6692 17356)">
    <rect id="Rectangle_13118" data-name="Rectangle 13118" width="34" height="34" rx="10" transform="translate(6692 -17356)" fill="#f8a930"/>
    <g id="Group_24224" data-name="Group 24224" transform="translate(6698.667 -17349.191)">
      <g id="Group_24223" data-name="Group 24223" clip-path="url(#clip-path)">
        <path id="Path_16757" data-name="Path 16757" d="M5.667,18.86l.593-1.441c.3-.721.6-1.44.888-2.163a.564.564,0,0,1,.58-.385c.221,0,.442-.005.662,0a.511.511,0,0,1,.533.5.484.484,0,0,1-.546.478c-.342-.038-.469.12-.584.407-.532,1.331-1.086,2.653-1.626,3.981-.1.239-.238.416-.51.412s-.407-.189-.5-.425c-.561-1.375-1.13-2.747-1.688-4.123a.4.4,0,0,0-.345-.281A3.6,3.6,0,0,1,0,12.162Q0,7.936,0,3.71A3.578,3.578,0,0,1,1.45.732,3.629,3.629,0,0,1,3.738,0h6.8q3.222,0,6.443,0a3.576,3.576,0,0,1,2.329.8,3.455,3.455,0,0,1,1.347,2.739c.019,2.905.007,5.811.006,8.716,0,.322-.129.524-.364.588a.5.5,0,0,1-.541-.205.661.661,0,0,1-.083-.4q0-3.652,0-7.3a12.434,12.434,0,0,0-.033-1.7,2.6,2.6,0,0,0-2.6-2.248q-6.675,0-13.35,0a3.26,3.26,0,0,0-.461.034A2.6,2.6,0,0,0,.992,3.541q-.015,4.391,0,8.782A2.584,2.584,0,0,0,3.55,14.868a.634.634,0,0,1,.654.444c.439,1.091.89,2.178,1.338,3.266.03.074.064.146.125.283" transform="translate(0.001 -0.001)" fill="#fff"/>
        <path id="Path_16758" data-name="Path 16758" d="M236.8,241.017a.6.6,0,0,1-.225.414c-.649.63-1.291,1.267-1.946,1.89a.5.5,0,0,0-.166.522c.17.91.313,1.824.473,2.735a.49.49,0,0,1-.176.511.48.48,0,0,1-.558.036c-.819-.433-1.643-.855-2.457-1.3a.526.526,0,0,0-.569,0c-.787.429-1.586.837-2.378,1.259a.513.513,0,0,1-.8-.582c.163-.911.308-1.825.47-2.736a.384.384,0,0,0-.117-.392c-.664-.635-1.322-1.277-1.982-1.917a.558.558,0,0,1-.228-.58.535.535,0,0,1,.513-.379c.872-.123,1.743-.258,2.617-.375a.571.571,0,0,0,.517-.351c.37-.8.774-1.585,1.161-2.377.105-.216.233-.4.5-.4s.413.177.523.4c.4.826.812,1.648,1.215,2.474a.343.343,0,0,0,.291.223c.96.133,1.918.278,2.877.424a.492.492,0,0,1,.443.493m-9.115.335c.062.069.085.1.111.122.5.488,1,.976,1.5,1.461a.64.64,0,0,1,.2.634c-.127.664-.23,1.332-.343,2-.01.057-.049.125,0,.167s.124-.014.178-.042c.587-.306,1.177-.606,1.756-.926a.68.68,0,0,1,.724,0c.586.324,1.182.626,1.775.936.05.026.106.08.161.042s.018-.108.008-.164c-.114-.666-.219-1.334-.346-2a.658.658,0,0,1,.214-.653c.489-.468.972-.942,1.455-1.415.043-.042.116-.07.1-.169-.717-.1-1.436-.212-2.156-.309a.658.658,0,0,1-.563-.394c-.283-.6-.584-1.188-.879-1.78-.032-.063-.044-.168-.121-.17-.1,0-.1.111-.137.179-.3.6-.6,1.2-.891,1.8a.6.6,0,0,1-.492.357c-.24.033-.481.065-.72.1l-1.542.228" transform="translate(-216.141 -226.539)" fill="#fff"/>
        <path id="Path_16759" data-name="Path 16759" d="M112.446,153.918H107.5a1.868,1.868,0,0,1-.242-.006.5.5,0,0,1-.431-.46.488.488,0,0,1,.357-.5,1.037,1.037,0,0,1,.328-.028h9.862a1.039,1.039,0,0,1,.328.028.488.488,0,0,1,.357.5.5.5,0,0,1-.431.46,1.86,1.86,0,0,1-.242.007h-4.942" transform="translate(-102.115 -146.177)" fill="#fff"/>
        <path id="Path_16760" data-name="Path 16760" d="M112.447,96.825h4.919c.081,0,.162,0,.242,0a.5.5,0,0,1,.442.425.492.492,0,0,1-.323.521.845.845,0,0,1-.3.042h-9.97a.85.85,0,0,1-.3-.041.488.488,0,0,1,.114-.947,1.855,1.855,0,0,1,.2,0h4.985" transform="translate(-102.106 -92.551)" fill="#fff"/>
        <path id="Path_16761" data-name="Path 16761" d="M109.825,210.094q-1.269,0-2.537,0a.482.482,0,0,1-.484-.315.457.457,0,0,1,.119-.525.615.615,0,0,1,.471-.148h4.788a1.514,1.514,0,0,1,.263.016.486.486,0,0,1-.082.969c-.846,0-1.691,0-2.537,0" transform="translate(-102.053 -199.878)" fill="#fff"/>
      </g>
    </g>
  </g>
</svg>
