<svg xmlns="http://www.w3.org/2000/svg" xmlns:xlink="http://www.w3.org/1999/xlink" width="36" height="36" viewBox="0 0 36 36">
  <defs>
    <clipPath id="clip-path">
      <rect id="Rectangle_13140" data-name="Rectangle 13140" width="21.17" height="21.162" fill="#fff"/>
    </clipPath>
    <clipPath id="clip-path-2">
      <rect id="Rectangle_15705" data-name="Rectangle 15705" width="15.056" height="8.986" fill="#fff"/>
    </clipPath>
  </defs>
  <g id="Group_31519" data-name="Group 31519" transform="translate(-94 -255)">
    <g id="Group_31518" data-name="Group 31518" transform="translate(71.75 48.75)">
      <g id="Group_31515" data-name="Group 31515" transform="translate(22 206)">
        <rect id="Rectangle_13321" data-name="Rectangle 13321" width="36" height="36" rx="10" transform="translate(0.25 0.25)" fill="#2aa1aa"/>
      </g>
      <g id="Group_31516" data-name="Group 31516" transform="translate(29.665 213.671)">
        <g id="Group_24223" data-name="Group 24223" clip-path="url(#clip-path)">
          <path id="Path_16757" data-name="Path 16757" d="M5.8,19.32l.607-1.476c.3-.738.611-1.475.91-2.215a.577.577,0,0,1,.594-.394c.226,0,.452-.005.678,0a.524.524,0,0,1,.546.516.5.5,0,0,1-.56.49c-.35-.039-.481.123-.6.416-.545,1.364-1.113,2.718-1.666,4.078-.1.245-.244.426-.522.423s-.417-.194-.516-.436C4.7,19.316,4.121,17.911,3.55,16.5a.409.409,0,0,0-.353-.288A3.683,3.683,0,0,1,0,12.458Q0,8.13,0,3.8A3.666,3.666,0,0,1,1.485.75,3.717,3.717,0,0,1,3.829,0h6.962q3.3,0,6.6,0a3.663,3.663,0,0,1,2.386.824,3.539,3.539,0,0,1,1.38,2.806c.02,2.976.007,5.952.006,8.929,0,.33-.132.536-.373.6a.511.511,0,0,1-.555-.21.677.677,0,0,1-.085-.412q0-3.741,0-7.482a12.737,12.737,0,0,0-.034-1.738,2.662,2.662,0,0,0-2.659-2.3q-6.838,0-13.676,0a3.34,3.34,0,0,0-.472.035A2.664,2.664,0,0,0,1.016,3.627q-.016,4.5,0,9a2.647,2.647,0,0,0,2.62,2.607.65.65,0,0,1,.67.455c.45,1.118.912,2.231,1.37,3.345.031.075.066.149.128.289" transform="translate(0.001 -0.001)" fill="#fff"/>
          <path id="Path_16758" data-name="Path 16758" d="M237.057,241.115a.617.617,0,0,1-.23.425c-.665.645-1.322,1.3-1.994,1.936a.517.517,0,0,0-.171.535c.174.932.32,1.868.484,2.8a.5.5,0,0,1-.181.523.492.492,0,0,1-.571.037c-.839-.443-1.683-.876-2.517-1.329a.539.539,0,0,0-.583,0c-.807.439-1.625.857-2.436,1.289a.525.525,0,0,1-.817-.6c.167-.933.315-1.869.482-2.8a.394.394,0,0,0-.12-.4c-.68-.651-1.354-1.308-2.03-1.963a.572.572,0,0,1-.234-.594.548.548,0,0,1,.525-.388c.894-.126,1.786-.264,2.681-.385a.585.585,0,0,0,.529-.36c.379-.82.793-1.623,1.19-2.435.108-.221.239-.41.513-.412s.423.181.536.414c.411.847.832,1.688,1.245,2.534a.351.351,0,0,0,.3.228c.983.137,1.965.285,2.947.435a.5.5,0,0,1,.454.505m-9.337.343c.064.071.087.1.114.125.513.5,1.024,1,1.539,1.5a.656.656,0,0,1,.209.65c-.13.68-.236,1.365-.351,2.047-.01.058-.05.128,0,.171s.127-.014.182-.043c.6-.313,1.205-.621,1.8-.948a.7.7,0,0,1,.742,0c.6.331,1.211.642,1.819.959.051.027.109.082.165.043s.018-.111.009-.168c-.117-.683-.224-1.367-.354-2.047a.674.674,0,0,1,.219-.669c.5-.479,1-.965,1.49-1.45.044-.043.119-.072.1-.173-.735-.106-1.471-.218-2.209-.317a.674.674,0,0,1-.576-.4c-.29-.613-.6-1.217-.9-1.823-.032-.065-.045-.172-.124-.174-.1,0-.105.114-.14.183-.307.613-.615,1.225-.913,1.843a.613.613,0,0,1-.5.366c-.246.034-.492.066-.738.1-.512.075-1.023.151-1.58.234" transform="translate(-215.897 -226.284)" fill="#fff"/>
        </g>
      </g>
      <g id="Group_31514" data-name="Group 31514" transform="translate(32.722 216.109)">
        <g id="Group_31513" data-name="Group 31513" clip-path="url(#clip-path-2)">
          <path id="Path_31195" data-name="Path 31195" d="M0,4.317a5.276,5.276,0,0,1,.711-.931A10.422,10.422,0,0,1,3.749.945a8.088,8.088,0,0,1,2.927-.9A8.245,8.245,0,0,1,12.647,1.81a11.641,11.641,0,0,1,2.228,2.243.62.62,0,0,1,.019.857,11.1,11.1,0,0,1-3.246,2.935A8.2,8.2,0,0,1,8.374,8.939,8.179,8.179,0,0,1,2.65,7.366,11.409,11.409,0,0,1,.137,4.894,2.436,2.436,0,0,1,0,4.669V4.317M7.518,7.631a3.159,3.159,0,0,0,3.146-3.219A3.145,3.145,0,1,0,7.518,7.631" transform="translate(0 0)" fill="#fff"/>
          <path id="Path_31196" data-name="Path 31196" d="M154.551,74.032a1.713,1.713,0,1,1-1.691-1.7,1.694,1.694,0,0,1,1.691,1.7" transform="translate(-145.317 -69.548)" fill="#fff"/>
        </g>
      </g>
    </g>
  </g>
</svg>
