<svg id="Group_31494" data-name="Group 31494" xmlns="http://www.w3.org/2000/svg" xmlns:xlink="http://www.w3.org/1999/xlink" width="59" height="59" viewBox="0 0 59 59">
  <defs>
    <clipPath id="clip-path">
      <rect id="Rectangle_13373" data-name="Rectangle 13373" width="59" height="59" fill="#a8a8a8" stroke="red" stroke-width="1"/>
    </clipPath>
    <clipPath id="clip-path-2">
      <rect id="Rectangle_13374" data-name="Rectangle 13374" width="26.433" height="25.057" fill="none"/>
    </clipPath>
  </defs>
  <g id="Group_24961" data-name="Group 24961">
    <g id="Group_24960" data-name="Group 24960" clip-path="url(#clip-path)">
      <path id="Path_21324" data-name="Path 21324" d="M29.333,0A29.333,29.333,0,1,1,0,29.333,29.334,29.334,0,0,1,29.333,0" fill="#a8a8a8"/>
      <path id="Path_31192" data-name="Path 31192" d="M28.519,0A28.519,28.519,0,1,1,0,28.519,28.519,28.519,0,0,1,28.519,0Z" transform="translate(0.815 0.815)" fill="#a8a8a8" stroke="#a8a8a8" stroke-width="1"/>
    </g>
  </g>
  <g id="Group_24963" data-name="Group 24963" transform="translate(16.28 17.183)">
    <g id="Group_24962" data-name="Group 24962" clip-path="url(#clip-path-2)">
      <path id="Path_21325" data-name="Path 21325" d="M19.855,25.725V12.049a1.518,1.518,0,0,1,.274-.989,1.326,1.326,0,0,1,1.415-.458,1.3,1.3,0,0,1,.932,1.167V25.818c.135-.127.213-.2.288-.272q2.012-2.014,4.025-4.027a1.323,1.323,0,0,1,1.991,1.742.673.673,0,0,1-.046.051c-.257.28-.536.543-.807.815L22.246,29.8a1.35,1.35,0,0,1-2.153,0L13.7,23.415a1.327,1.327,0,0,1,1.718-2.022,1.306,1.306,0,0,1,.127.124q1.648,1.635,3.28,3.282l.957.961.073-.037" transform="translate(-7.949 -10.54)" fill="#fff"/>
      <path id="Path_21326" data-name="Path 21326" d="M23.205,26.94H11.4a1.321,1.321,0,1,1-.148-2.637c.1-.01.207,0,.31,0H34.859a2.332,2.332,0,0,1,.671.08,1.293,1.293,0,0,1,.875,1.467,1.325,1.325,0,0,1-1.212,1.1H23.205" transform="translate(-9.987 -1.883)" fill="#fff"/>
    </g>
  </g>
</svg>
