<svg xmlns="http://www.w3.org/2000/svg" width="42" height="42" viewBox="0 0 42 42">
  <g id="swing" transform="translate(-15376 6061)">
    <g id="Group_18929" data-name="Group 18929" transform="translate(14549.999 -6743)">
      <g id="Group_18068" data-name="Group 18068">
        <g id="Group_16926" data-name="Group 16926" transform="translate(205.001 531)">
          <rect id="Rectangle_7172" data-name="Rectangle 7172" width="42" height="42" rx="8" transform="translate(621 151)" fill="#eaeaea"/>
        </g>
      </g>
    </g>
    <g id="Group_10380" data-name="Group 10380" transform="translate(15235 -6702)">
      <g id="Group_10375" data-name="Group 10375" transform="translate(-175.333 271)">
        <g id="sewing-machine" transform="translate(327.333 381)">
          <g id="Group_10338" data-name="Group 10338">
            <g id="Group_10337" data-name="Group 10337">
              <rect id="Rectangle_8623" data-name="Rectangle 8623" width="1.245" height="1.245" transform="translate(15.766 12.032)"/>
              <path id="Path_10845" data-name="Path 10845" d="M17.875,4.875H12.188A.814.814,0,0,0,13,4.063V1.625a.814.814,0,0,0-.812-.812V.406a.406.406,0,1,0-.813,0V.813a.814.814,0,0,0-.812.812V4.063a.814.814,0,0,0,.812.812H8.937a.814.814,0,0,0,.812-.812V1.625A.814.814,0,0,0,8.937.813V.406a.406.406,0,1,0-.812,0V.813a.814.814,0,0,0-.812.812V4.063a.814.814,0,0,0,.812.812h-6.5A1.627,1.627,0,0,0,0,6.5v3.894a1.793,1.793,0,0,0,1.793,1.793h.644v.406A.406.406,0,0,0,2.844,13v1.219a.406.406,0,1,0,.812,0V13a.406.406,0,0,0,.406-.406v-.406h.644A1.793,1.793,0,0,0,6.5,10.394V8.937H13v6.5H.406A.406.406,0,0,0,0,15.844v2.031A1.627,1.627,0,0,0,1.625,19.5h16.25A1.627,1.627,0,0,0,19.5,17.875V6.5A1.627,1.627,0,0,0,17.875,4.875ZM8.531,7.313H7.719a.406.406,0,0,1,0-.813h.812a.406.406,0,0,1,0,.813Zm2.438,0h-.812a.406.406,0,0,1,0-.813h.812a.406.406,0,0,1,0,.813Zm6.906,8.531a.406.406,0,0,1-.406.406H15.031a.406.406,0,0,1-.406-.406V11.781a.406.406,0,0,1,.406-.406h2.438a.406.406,0,0,1,.406.406ZM16.25,9.75a1.625,1.625,0,1,1,1.625-1.625A1.627,1.627,0,0,1,16.25,9.75Z"/>
            </g>
          </g>
        </g>
      </g>
    </g>
  </g>
</svg>
