<svg xmlns="http://www.w3.org/2000/svg" width="42" height="42" viewBox="0 0 42 42">
  <g id="cutting" transform="translate(-409.124 -680)">
    <g id="Group_18066" data-name="Group 18066" transform="translate(139.374 62.5)">
      <rect id="Rectangle_7171" data-name="Rectangle 7171" width="42" height="42" rx="8" transform="translate(269.75 617.5)" fill="#eaeaea"/>
      <g id="Group_16305" data-name="Group 16305" transform="translate(281.5 628)">
        <path id="Path_10881" data-name="Path 10881" d="M79.643,16.716a3.482,3.482,0,0,0-5.06-2.324L73.6,12.164l3.77-9.048a2.218,2.218,0,0,0-.817-2.7L76.034.073a.436.436,0,0,0-.641.187l-3.53,7.982L68.332.26a.436.436,0,0,0-.641-.187l-.517.344a2.218,2.218,0,0,0-.817,2.7l3.77,9.049-.986,2.227A3.416,3.416,0,0,0,67.5,13.97a3.493,3.493,0,1,0,3.493,3.493,4.935,4.935,0,0,1,.873-2.881,4.884,4.884,0,0,1,.872,2.756,3.616,3.616,0,0,0,3.308,3.612c.063,0,.125,0,.187,0a3.5,3.5,0,0,0,3.413-4.24ZM67.5,19.209a1.746,1.746,0,1,1,1.746-1.746A1.748,1.748,0,0,1,67.5,19.209ZM71.862,13.1a.873.873,0,1,1,.873-.873A.874.874,0,0,1,71.862,13.1Zm4.366,6.112a1.746,1.746,0,1,1,1.746-1.746A1.748,1.748,0,0,1,76.228,19.209Z" transform="translate(-64.004 0)"/>
      </g>
    </g>
  </g>
</svg>
