<svg id="Group_21611" data-name="Group 21611" xmlns="http://www.w3.org/2000/svg" xmlns:xlink="http://www.w3.org/1999/xlink" width="20.802" height="17.498" viewBox="0 0 20.802 17.498">
  <defs>
    <clipPath id="clip-path">
      <rect id="Rectangle_12260" data-name="Rectangle 12260" width="20.802" height="17.498" fill="none"/>
    </clipPath>
  </defs>
  <g id="Group_21560" data-name="Group 21560" clip-path="url(#clip-path)">
    <path id="Path_15651" data-name="Path 15651" d="M1.047,84.47a1.419,1.419,0,0,1-.8-.512A1.415,1.415,0,0,1,0,83.083q.008-3.354,0-6.709c0-1.788,0-3.575,0-5.363a1.247,1.247,0,0,1,1.025-1.254,1.3,1.3,0,0,1,.275-.023h9.321c.274,0,.276,0,.276.275q0,.564,0,1.128c0,.321,0,.321-.315.321l-8.332,0H2.118c-.341,0-.394.051-.394.386q0,1.286,0,2.573,0,3.938,0,7.877c0,.079,0,.159.006.237a.234.234,0,0,0,.231.227,1.537,1.537,0,0,0,.158,0H17.595c.348,0,.424-.078.425-.434q0-2.583,0-5.165c0-.3,0-.3.308-.3h1.108c.3,0,.3.006.3.3q0,1.751,0,3.5c0,.772,0,1.544,0,2.315a1.34,1.34,0,0,1-1.073,1.5Z" transform="translate(0 -66.972)" fill="#4E90DE"/>
    <path id="Path_15652" data-name="Path 15652" d="M348.616,4.434a.4.4,0,0,1-.267.048h-2.236c-.265,0-.269,0-.269.261,0,.745,0,1.491,0,2.236,0,.267-.011.276-.281.276q-.594,0-1.187,0c-.258,0-.271-.012-.271-.266q0-1.1,0-2.2c0-.309,0-.31-.319-.31h-2.2c-.24,0-.258-.018-.259-.26q0-.6,0-1.207c0-.24.016-.254.263-.254.759,0,1.517-.005,2.276,0,.182,0,.241-.056.24-.237-.008-.745,0-1.491,0-2.236A.585.585,0,0,1,344.142,0H345.8a.6.6,0,0,1,.039.291c0,.745,0,1.489,0,2.234,0,.178.051.242.236.24.758-.009,1.516,0,2.273,0a.364.364,0,0,1,.265.049Z" transform="translate(-327.813)" fill="#4E90DE"/>
    <path id="Path_15653" data-name="Path 15653" d="M90.531,157.965H84.2c-.222,0-.241-.033-.132-.222q.335-.583.673-1.165,1.1-1.91,2.207-3.82c.131-.226.156-.225.287,0q.684,1.181,1.369,2.362c.124.214.149.211.275-.008l3.163-5.485c.128-.223.154-.224.285,0q2.178,3.768,4.354,7.538c.115.2.225.4.346.6.094.153.038.2-.119.2-.6,0-1.2,0-1.8,0H90.531" transform="translate(-80.675 -143.544)" fill="#4E90DE"/>
    <path id="Path_15654" data-name="Path 15654" d="M137.309,148.8a1.06,1.06,0,0,1-2.12-.009,1.06,1.06,0,1,1,2.12.009" transform="translate(-129.837 -141.889)" fill="#4E90DE"/>
  </g>
</svg>
