<svg id="Group_21613" data-name="Group 21613" xmlns="http://www.w3.org/2000/svg" xmlns:xlink="http://www.w3.org/1999/xlink" width="22.314" height="21.165" viewBox="0 0 22.314 21.165">
  <defs>
    <clipPath id="clip-path">
      <rect id="Rectangle_12078" data-name="Rectangle 12078" width="22.314" height="21.165" fill="#fff"/>
    </clipPath>
  </defs>
  <g id="Group_21479" data-name="Group 21479" clip-path="url(#clip-path)">
    <path id="Path_14247" data-name="Path 14247" d="M1.781,30.659c.111-.1.176-.164.238-.225q1.256-1.255,2.512-2.511a1.191,1.191,0,0,1,1.886.007c.284.282.566.567.85.849a.578.578,0,0,0,.962,0Q10.92,26.086,13.61,23.4a1.214,1.214,0,0,1,1.948,0q2.361,2.359,4.72,4.721a2.343,2.343,0,0,1,.192.258.44.44,0,0,0,.075-.33c0-1.113,0-2.225,0-3.338a.858.858,0,0,1,.775-.846.9.9,0,0,1,.924.581,1.181,1.181,0,0,1,.044.422c0,2.154-.007,4.308.006,6.462a6.7,6.7,0,0,1-.056,1.512,3.868,3.868,0,0,1-3.991,3.053c-.16-.008-.32-.008-.481-.008H4.553a7.569,7.569,0,0,1-1.41-.048A3.887,3.887,0,0,1,.024,31.616a2.087,2.087,0,0,0,.01-.24c0-3.667.006-7.334-.007-11a6.536,6.536,0,0,1,.06-1.458,3.88,3.88,0,0,1,4.025-3.047c.444.025.89.01,1.335.01h7.8c.662,0,1.082.342,1.083.879s-.421.9-1.1.9q-4.366,0-8.732,0a5.542,5.542,0,0,0-.958.052,1.9,1.9,0,0,0-1.711,1.854q-.052.612-.051,1.226.005,4.74,0,9.479Z" transform="translate(0 -14.733)" fill="#fff"/>
    <path id="Path_14248" data-name="Path 14248" d="M242.276,3.053c-.126.1-.2.165-.277.222A.877.877,0,0,1,240.83,3.2a.852.852,0,0,1-.048-1.168c.584-.623,1.19-1.227,1.812-1.812a.828.828,0,0,1,1.147.028q.888.848,1.736,1.738a.855.855,0,0,1,0,1.209.878.878,0,0,1-1.211.055c-.062-.049-.122-.1-.183-.152-.093.065-.054.152-.054.224,0,.694,0,1.389,0,2.083a.874.874,0,1,1-1.745.006c0-.764,0-1.528,0-2.356" transform="translate(-223.438 0)" fill="#fff"/>
    <path id="Path_14249" data-name="Path 14249" d="M72.362,89.578a1.453,1.453,0,0,1,1.453-1.461,1.456,1.456,0,0,1,.007,2.912,1.444,1.444,0,0,1-1.459-1.451" transform="translate(-67.208 -81.841)" fill="#fff"/>
  </g>
</svg>
