<svg xmlns="http://www.w3.org/2000/svg" xmlns:xlink="http://www.w3.org/1999/xlink" width="14.715" height="19.275" viewBox="0 0 14.715 19.275">
  <defs>
    <clipPath id="clip-path">
      <rect id="Rectangle_12422" data-name="Rectangle 12422" width="14.715" height="19.275" fill="none"/>
    </clipPath>
    <clipPath id="clip-path-2">
      <rect id="Rectangle_12423" data-name="Rectangle 12423" width="6.011" height="6.014" fill="none"/>
    </clipPath>
  </defs>
  <g id="Group_21693" data-name="Group 21693" transform="translate(0 0)">
    <g id="Group_21648" data-name="Group 21648" transform="translate(0 0)">
      <g id="Group_21647" data-name="Group 21647" clip-path="url(#clip-path)">
        <path id="Path_15758" data-name="Path 15758" d="M13.342,19.275H1.37L1.156,19.2A1.693,1.693,0,0,1,0,17.622Q0,9.637,0,1.652A1.588,1.588,0,0,1,.16.963,1.785,1.785,0,0,1,1.37,0H9.05c0,.087.014.175.014.262q0,1.787,0,3.575a1.741,1.741,0,0,0,.542,1.336,1.763,1.763,0,0,0,1.258.458c1.2,0,2.408,0,3.613,0,.177,0,.238.049.238.233q-.007,5.889,0,11.779a1.542,1.542,0,0,1-.144.637,1.774,1.774,0,0,1-1.225,1M7.367,7.958c-1.109,0-2.219,0-3.328,0a.552.552,0,1,0-.013,1.1q3.328,0,6.657,0a.571.571,0,0,0,.607-.542.579.579,0,0,0-.613-.556c-.056,0-.113,0-.169,0H7.367m-.019,3.359H8.533c.721,0,1.442,0,2.163,0a.568.568,0,0,0,.594-.554.577.577,0,0,0-.589-.543H4.082a.559.559,0,1,0-.005,1.1H7.348m.011,2.259h3.253c.4,0,.676-.222.677-.549s-.272-.549-.675-.551H4.127c-.432,0-.714.224-.705.558s.279.541.7.542H7.36M6.219,15.834h0c.739,0,1.479,0,2.218,0a.568.568,0,0,0,.594-.554.576.576,0,0,0-.588-.543c-.056,0-.113,0-.169,0H6.149c-.708,0-1.416,0-2.124,0a.551.551,0,1,0-.006,1.1c.05,0,.1,0,.15,0H6.219" transform="translate(0)" fill="#a8a8a8"/>
        <path id="Path_15759" data-name="Path 15759" d="M204.681,11.6c-.545,0-1.09,0-1.636,0a.576.576,0,0,1-.644-.634q0-1.673,0-3.346c0-.059-.03-.143.035-.171s.106.051.148.092q1.936,1.933,3.869,3.868c.043.043.122.086.1.146-.027.082-.12.044-.183.044-.564,0-1.128,0-1.692,0" transform="translate(-192.236 -7.065)" fill="#a8a8a8"/>
      </g>
    </g>
    <g id="Group_21650" data-name="Group 21650" transform="translate(1.615 0.876)">
      <g id="Group_21649" data-name="Group 21649" transform="translate(0 0)" clip-path="url(#clip-path-2)">
        <path id="Path_15760" data-name="Path 15760" d="M1.932,2.715c-.356,0-.712,0-1.068,0A.094.094,0,0,1,.758,2.64C.514,1.9.269,1.164.02.428A.315.315,0,0,1,.276,0,.393.393,0,0,1,.5.058L2.389,1,5.8,2.707a.356.356,0,0,1,.2.205.3.3,0,0,1-.118.347,1.112,1.112,0,0,1-.129.071L.494,5.956a.368.368,0,0,1-.221.055.3.3,0,0,1-.258-.4c.045-.148.1-.294.145-.44.2-.593.4-1.186.591-1.78A.114.114,0,0,1,.881,3.3q1.054,0,2.108,0a.291.291,0,1,0,0-.582H1.932" transform="translate(0 0.001)" fill="#fff"/>
      </g>
    </g>
  </g>
</svg>
