<svg xmlns="http://www.w3.org/2000/svg" xmlns:xlink="http://www.w3.org/1999/xlink" width="16.141" height="17.856" viewBox="0 0 16.141 17.856">
  <defs>
    <clipPath id="clip-path">
      <rect id="Rectangle_12410" data-name="Rectangle 12410" width="16.141" height="17.856" fill="none"/>
    </clipPath>
  </defs>
  <g id="Group_21631" data-name="Group 21631" clip-path="url(#clip-path)">
    <path id="Path_15751" data-name="Path 15751" d="M16.139,8.942q0,3.55,0,7.1a1.786,1.786,0,0,1-1.5,1.789,1.941,1.941,0,0,1-.344.022q-6.226,0-12.452,0A1.782,1.782,0,0,1,0,16q0-5.6,0-11.19c0-.283,0-.286.281-.286H4.188c.314,0,.341-.011.351-.33.016-.549.012-1.1.013-1.648,0-.76,0-1.519,0-2.279,0-.265,0-.267.274-.267q4.751,0,9.5,0a1.772,1.772,0,0,1,1.81,1.8c.005,2.2,0,4.395,0,6.592q0,.275,0,.549M9.073,5.591q0-1.434,0-2.867c0-.061,0-.122,0-.183a.19.19,0,0,0-.206-.2H7.279c-.144,0-.206.083-.211.219,0,.068,0,.136,0,.2q0,2.806,0,5.613c0,.4.037.365-.376.367-.3,0-.6,0-.895,0-.1,0-.211.006-.262.116s.006.181.062.262q1.121,1.611,2.239,3.223c.184.264.287.265.469,0q1.121-1.611,2.239-3.223c.06-.087.116-.174.057-.28s-.154-.1-.25-.1c-.339,0-.678-.012-1.017,0-.208.01-.265-.062-.263-.266.009-.963,0-1.925,0-2.888M8.068,13.539H3.412c-.368,0-.384.015-.384.373q0,.63,0,1.261c0,.326.021.347.346.347h9.395c.323,0,.343-.022.344-.349q0-.63,0-1.261c0-.351-.019-.37-.366-.37H8.068" transform="translate(0 0)" fill="#a8a8a8"/>
    <path id="Path_15752" data-name="Path 15752" d="M10.148,8.149c0,.57,0,1.14,0,1.709,0,.174-.052.24-.232.239-1.146-.006-2.293,0-3.439,0-.056,0-.136.03-.161-.045-.018-.057.048-.091.085-.128Q8.187,8.134,9.972,6.351c.04-.04.075-.118.145-.082.052.027.03.1.03.15q0,.865,0,1.73" transform="translate(-5.974 -5.92)" fill="#a8a8a8"/>
  </g>
</svg>
