<svg xmlns="http://www.w3.org/2000/svg" xmlns:xlink="http://www.w3.org/1999/xlink" width="500" height="500" viewBox="0 0 500 500">
  <defs>
    <clipPath id="clip-path">
      <rect id="Rectangle_11952" data-name="Rectangle 11952" width="82.335" height="236.001" fill="#fff"/>
    </clipPath>
  </defs>
  <g id="Group_21705" data-name="Group 21705" transform="translate(-17448 14224)">
    <g id="Path_14090" data-name="Path 14090" transform="translate(17448 -14224)" fill="#4E90DE">
      <path d="M 250 490 C 117.66357421875 490 10 382.33642578125 10 250 C 10 117.66357421875 117.66357421875 10 250 10 C 382.33642578125 10 490 117.66357421875 490 250 C 490 382.33642578125 382.33642578125 490 250 490 Z" stroke="none"/>
      <path d="M 250 20 C 123.1775817871094 20 20 123.1775817871094 20 250 C 20 376.8224182128906 123.1775817871094 480 250 480 C 376.8224182128906 480 480 376.8224182128906 480 250 C 480 123.1775817871094 376.8224182128906 20 250 20 M 250 0 C 388.0711669921875 0 500 111.9288330078125 500 250 C 500 388.0711669921875 388.0711669921875 500 250 500 C 111.9288330078125 500 0 388.0711669921875 0 250 C 0 111.9288330078125 111.9288330078125 0 250 0 Z" stroke="none" fill="#b5b5b5"/>
    </g>
    <g id="Group_21704" data-name="Group 21704" transform="translate(17658.832 -14097.001)">
      <g id="Group_21703" data-name="Group 21703" clip-path="url(#clip-path)">
        <path id="Path_14088" data-name="Path 14088" d="M50.459,0C56.768,1.574,62.433,4.3,66.7,9.379c6.851,8.169,8.874,17.465,5.388,27.518-3.574,10.307-11,16.687-21.828,18.51A27.872,27.872,0,0,1,18.168,33.788C15.045,18.811,23.888,4.614,38.823.621,39.485.444,40.133.208,40.787,0Z" transform="translate(-6.974)" fill="#fff"/>
        <path id="Path_14089" data-name="Path 14089" d="M64.307,185.787q0,30.73,0,61.46c0,3.232.006,3.234,3.314,3.237,4.143,0,8.288.055,12.43-.021,1.692-.031,2.291.6,2.283,2.283q-.073,14.5,0,29c.009,1.73-.68,2.234-2.325,2.232q-38.787-.049-77.574.005c-1.785,0-2.423-.581-2.412-2.386q.092-14.386,0-28.773C.013,251,.7,250.421,2.463,250.46c3.988.087,7.979.027,11.97.025,3.679,0,3.683,0,3.683-3.584q0-27.622,0-55.245c0-11.356-.049-22.712.043-34.067.017-2.152-.457-3.061-2.82-3.3-6.747-.692-11.6-4.273-14.089-10.627-2.461-6.287-1.219-12.083,3.128-17.17,3.539-4.142,8.318-5.677,13.565-5.707,14.655-.082,29.311,0,43.966-.066,2.233-.01,2.42,1.17,2.417,2.921q-.045,31.075-.019,62.151" transform="translate(0 -47.986)" fill="#fff"/>
      </g>
    </g>
  </g>
</svg>
