<svg xmlns="http://www.w3.org/2000/svg" xmlns:xlink="http://www.w3.org/1999/xlink" width="34" height="34" viewBox="0 0 34 34">
  <defs>
    <clipPath id="clip-path">
      <rect id="Rectangle_13139" data-name="Rectangle 13139" width="20.896" height="20.906" fill="#fff"/>
    </clipPath>
  </defs>
  <g id="Group_24218" data-name="Group 24218" transform="translate(-6692 17442)">
    <rect id="Rectangle_13118" data-name="Rectangle 13118" width="34" height="34" rx="10" transform="translate(6692 -17442)" fill="#5a76b2"/>
    <g id="Group_24214" data-name="Group 24214" transform="translate(6620.095 -17355.918)">
      <g id="Group_24213" data-name="Group 24213" transform="translate(78.5 -79.488)" clip-path="url(#clip-path)">
        <path id="Path_16755" data-name="Path 16755" d="M20.894,10.456c0,2.55,0,5.1,0,7.651a2.682,2.682,0,0,1-1.308,2.4,2.629,2.629,0,0,1-1.425.4q-6.266.005-12.532,0A2.711,2.711,0,0,1,2.9,18.165c0-.3-.01-.591,0-.885.009-.2-.052-.28-.268-.275-.635.013-1.271.009-1.907,0a.734.734,0,0,1-.721-.658A.764.764,0,0,1,.5,15.562a.888.888,0,0,1,.313-.038c.613,0,1.226-.006,1.839,0,.183,0,.255-.051.253-.243-.009-.636-.008-1.271,0-1.907,0-.178-.061-.238-.238-.236q-.942.011-1.884,0a.759.759,0,0,1-.741-.531.742.742,0,0,1,.294-.839.905.905,0,0,1,.54-.142c.59,0,1.181-.007,1.771,0,.2,0,.263-.068.26-.264q-.014-.919,0-1.839c0-.2-.074-.26-.267-.257-.6.009-1.2.005-1.793,0A.779.779,0,0,1,.063,8.8a.744.744,0,0,1,.7-1.031c.613-.01,1.226,0,1.839,0,.3,0,.3,0,.3-.306,0-.605-.006-1.211,0-1.816,0-.2-.058-.264-.259-.261-.613.011-1.226.006-1.839,0A.744.744,0,1,1,.8,3.9c.621,0,1.241-.006,1.862,0,.177,0,.238-.055.239-.234A10.343,10.343,0,0,1,2.93,2.42,2.686,2.686,0,0,1,5.609.008q6.289-.016,12.577,0a2.7,2.7,0,0,1,2.706,2.774q.007,3.837,0,7.674M8.542,7.527a3.355,3.355,0,1,0,3.35-3.336,3.33,3.33,0,0,0-3.35,3.336m3.249,4.395c-.087.009-.23.026-.373.036a4.816,4.816,0,0,0-4.311,3.924.7.7,0,1,0,1.367.257,3.474,3.474,0,0,1,6.794-.119.716.716,0,0,0,.8.629.707.707,0,0,0,.575-.879,4.568,4.568,0,0,0-.2-.744,4.879,4.879,0,0,0-4.653-3.1" transform="translate(0 0.001)" fill="#fff"/>
        <path id="Path_16756" data-name="Path 16756" d="M70.445,39.357a1.964,1.964,0,1,1-1.964-1.969,1.978,1.978,0,0,1,1.964,1.969" transform="translate(-56.584 -31.804)" fill="#fff"/>
      </g>
    </g>
  </g>
</svg>
