<svg xmlns="http://www.w3.org/2000/svg" xmlns:xlink="http://www.w3.org/1999/xlink" width="18.339" height="20.833" viewBox="0 0 18.339 20.833">
  <defs>
    <clipPath id="clip-path">
      <rect id="Rectangle_12424" data-name="Rectangle 12424" width="18.339" height="20.833" fill="none"/>
    </clipPath>
  </defs>
  <g id="Group_21694" data-name="Group 21694" transform="translate(0 0)">
    <g id="Group_21651" data-name="Group 21651" transform="translate(0 0)" clip-path="url(#clip-path)">
      <path id="Path_15761" data-name="Path 15761" d="M38.213,134.511H27.562c-.032-.012-.063-.025-.1-.035a1.822,1.822,0,0,1-1.39-1.62c-.074-.631-.109-1.267-.163-1.9-.1-1.227-.211-2.453-.312-3.68-.088-1.058-.167-2.118-.255-3.176q-.171-2.053-.35-4.1c-.014-.158.038-.231.2-.216.054,0,.108,0,.162,0H40.416c.061,0,.122,0,.183,0,.144-.011.194.058.181.2-.032.35-.06.7-.089,1.052q-.114,1.345-.227,2.689c-.074.9-.143,1.794-.218,2.691-.088,1.058-.181,2.116-.269,3.175s-.167,2.1-.257,3.156a2.032,2.032,0,0,1-.259.868,1.989,1.989,0,0,1-1.248.906m-4.731-7.947q0-2.367,0-4.734a1.317,1.317,0,0,0-.037-.362.574.574,0,0,0-.677-.409c-.317.069-.474.307-.474.728q0,4.755,0,9.509a1.184,1.184,0,0,0,.038.322.573.573,0,0,0,.676.409c.312-.068.474-.3.474-.708q0-2.377,0-4.755m-3.055,4.9c-.052-.8-.1-1.558-.149-2.315-.06-.986-.113-1.972-.173-2.959q-.117-1.935-.241-3.869c-.017-.263-.024-.528-.066-.788a.557.557,0,0,0-.618-.489.6.6,0,0,0-.535.651c.018.284.043.567.061.85q.144,2.309.286,4.619c.074,1.216.142,2.432.215,3.648a6.41,6.41,0,0,0,.067.747.557.557,0,0,0,.626.479.583.583,0,0,0,.526-.574m4.921.016a.585.585,0,0,0,.557.562.592.592,0,0,0,.621-.592c.051-.7.087-1.405.129-2.108.045-.757.089-1.514.135-2.27q.094-1.52.191-3.04c.047-.757.088-1.514.143-2.27a.6.6,0,0,0-.524-.715.594.594,0,0,0-.644.589c-.076,1.128-.141,2.256-.209,3.385-.059.98-.115,1.96-.176,2.939-.071,1.148-.146,2.3-.224,3.519" transform="translate(-23.721 -113.678)" fill="#a8a8a8"/>
      <path id="Path_15762" data-name="Path 15762" d="M9.167,4.912q-3.942,0-7.885,0a1.234,1.234,0,1,1-.075-2.466c1.131-.01,2.262,0,3.394,0,.28,0,.292,0,.279-.286A2.015,2.015,0,0,1,5.358.61a1.726,1.726,0,0,1,1.288-.6c1.68-.009,3.36-.013,5.04,0a1.825,1.825,0,0,1,1.762,1.761c0,.135,0,.271,0,.406,0,.26.006.266.26.266q1.687,0,3.373,0a1.178,1.178,0,0,1,.907.386,1.175,1.175,0,0,1,.236,1.338,1.162,1.162,0,0,1-1.135.745q-3.963,0-7.926,0m-.005-2.47c.86,0,1.721,0,2.581,0,.507,0,.458.06.456-.455s-.235-.731-.74-.732q-2.3,0-4.594,0a.64.64,0,0,0-.731.721c0,.068,0,.135,0,.2,0,.258.005.262.264.263H9.161" transform="translate(0 0)" fill="#a8a8a8"/>
    </g>
  </g>
</svg>
