<svg id="Group_21687" data-name="Group 21687" xmlns="http://www.w3.org/2000/svg" xmlns:xlink="http://www.w3.org/1999/xlink" width="19.961" height="19.961" viewBox="0 0 19.961 19.961">
  <defs>
    <clipPath id="clip-path">
      <rect id="Rectangle_12033" data-name="Rectangle 12033" width="19.961" height="19.961" fill="none"/>
    </clipPath>
  </defs>
  <g id="Group_21471" data-name="Group 21471" clip-path="url(#clip-path)">
    <path id="Path_14246" data-name="Path 14246" d="M0,10.8V9.167c.035-.257.064-.514.106-.77A9.637,9.637,0,0,1,2.659,3.176a9.771,9.771,0,0,1,8.562-3.1,9.365,9.365,0,0,1,5.508,2.547A9.753,9.753,0,0,1,19.8,11.741a9.924,9.924,0,0,1-7.2,7.891,13.884,13.884,0,0,1-1.816.329H9.155c-.314-.046-.631-.075-.941-.14A9.844,9.844,0,0,1,.337,12.638,10.612,10.612,0,0,1,0,10.8M14.3,6.5a.787.787,0,0,0-.794-.842.876.876,0,0,0-.65.3q-1.347,1.352-2.7,2.7c-.18.18-.181.18-.366,0L7.144,6.014a2.115,2.115,0,0,0-.2-.185A.779.779,0,0,0,6.1,5.737a.746.746,0,0,0-.451.715.868.868,0,0,0,.3.651Q7.3,8.45,8.646,9.8c.183.183.183.185,0,.366L6.007,12.812a2.135,2.135,0,0,0-.186.2.78.78,0,0,0-.1.844.746.746,0,0,0,.712.455.864.864,0,0,0,.652-.3q1.34-1.345,2.684-2.686c.2-.2.2-.2.407.006.881.881,1.774,1.752,2.638,2.649a.825.825,0,1,0,1.15-1.154c-.9-.865-1.767-1.758-2.648-2.64-.2-.2-.2-.2,0-.407q1.335-1.336,2.671-2.671A.83.83,0,0,0,14.3,6.5" transform="translate(0 0)" fill="#7d7d7d"/>
  </g>
</svg>
