<svg xmlns="http://www.w3.org/2000/svg" width="14.583" height="17.333" viewBox="0 0 14.583 17.333"><defs><style>.a{fill:#34c636;}.b{fill:#0ba80e;opacity:0.4;}.c{fill:#fff;}</style></defs><g transform="translate(0 0)"><path class="a" d="M13.133,6.085c-.387,0-.9-.009-1.539-.009A2.877,2.877,0,0,1,8.755,3.185V.4A.394.394,0,0,0,8.367,0H3.829A3.871,3.871,0,0,0,0,3.908v9.338a4.047,4.047,0,0,0,4.006,4.087h6.756a3.86,3.86,0,0,0,3.821-3.9V6.475a.391.391,0,0,0-.389-.4c-.362,0-.8.007-1.062.007"/><path class="b" d="M.7.128A.409.409,0,0,0,0,.417V2.7A1.747,1.747,0,0,0,1.729,4.45c.6.007,1.429.009,2.134.007a.414.414,0,0,0,.294-.7C3.253,2.806,1.632,1.1.7.128" transform="translate(10.091 0.364)"/><path class="c" d="M4.879,2.142H3.4V.646a.639.639,0,1,0-1.277,0v1.5H.638a.646.646,0,0,0,0,1.291H2.12v1.5a.639.639,0,1,0,1.277,0v-1.5H4.879a.646.646,0,0,0,0-1.291" transform="translate(4.443 6.729)"/></g></svg>