<svg id="Group_21618" data-name="Group 21618" xmlns="http://www.w3.org/2000/svg" xmlns:xlink="http://www.w3.org/1999/xlink" width="15.191" height="15.191" viewBox="0 0 15.191 15.191">
  <defs>
    <clipPath id="clip-path">
      <rect id="Rectangle_11977" data-name="Rectangle 11977" width="15.191" height="15.191" fill="none"/>
    </clipPath>
  </defs>
  <g id="Group_21462" data-name="Group 21462" clip-path="url(#clip-path)">
    <path id="Path_14243" data-name="Path 14243" d="M78.681,0h3.3c.288,0,.341.047.341.325q0,3.3,0,6.591c0,.276-.06.333-.34.333H75.387c-.281,0-.341-.057-.341-.332q0-3.3,0-6.591c0-.28.052-.327.339-.327h3.3m.01,4.553c-.368,0-.737,0-1.1,0-.165,0-.246.062-.236.234.006.111,0,.224,0,.335,0,.247.041.288.286.289.592,0,1.184,0,1.775,0,.671,0,.595.059.6-.627,0-.173-.076-.233-.239-.231-.362,0-.723,0-1.085,0" transform="translate(-71.086 0)" fill="#585858"/>
    <path id="Path_14244" data-name="Path 14244" d="M157.775,154.168q0,1.648,0,3.3c0,.278-.031.309-.3.309h-6.633c-.265,0-.312-.046-.312-.31q0-3.317,0-6.633c0-.247.057-.306.3-.306q3.327,0,6.653,0c.247,0,.3.052.3.307q0,1.668,0,3.336m-3.618,1.766c.257,0,.513,0,.77,0,.583,0,.575.1.568-.6,0-.184-.084-.252-.269-.25-.6.008-1.2,0-1.8,0-.673,0-.592-.1-.6.62,0,.171.075.233.24.231.362-.006.724,0,1.086,0" transform="translate(-142.584 -142.584)" fill="#585858"/>
    <path id="Path_14245" data-name="Path 14245" d="M0,154.167q0-1.648,0-3.3c0-.307.037-.346.336-.346H6.909c.294,0,.34.047.34.346q0,3.277,0,6.554c0,.317-.033.349-.352.349H.323c-.3,0-.323-.025-.323-.33q0-1.639,0-3.277m3.607.916c-.256,0-.512,0-.768,0-.591,0-.563-.089-.556.584,0,.223.047.265.268.265.6,0,1.208,0,1.813,0,.651,0,.576.09.582-.615,0-.167-.066-.238-.235-.236-.368.006-.735,0-1.1,0" transform="translate(0.001 -142.583)" fill="#585858"/>
  </g>
</svg>
