<svg xmlns="http://www.w3.org/2000/svg" width="22" height="22" viewBox="0 0 22 22">
  <g id="Group_19921" data-name="Group 19921" transform="translate(-104 -200)">
    <rect id="Rectangle_11115" data-name="Rectangle 11115" width="22" height="22" transform="translate(104 200)" fill="none"/>
    <g id="Password" transform="translate(105 201.166)">
      <path id="Password-2" data-name="Password" d="M5.666,20C2.277,20,0,17.623,0,14.084V5.917C0,2.378,2.277,0,5.666,0h8.669C17.724,0,20,2.378,20,5.917v8.168C20,17.623,17.723,20,14.334,20Zm7.266-9.25h1.329v1.1a.75.75,0,1,0,1.5,0V10a.751.751,0,0,0-.75-.75H9.319a2.6,2.6,0,1,0,0,1.5h2.112v1.1a.75.75,0,0,0,1.5,0v-1.1h0ZM5.739,10a1.1,1.1,0,1,1,1.1,1.1A1.1,1.1,0,0,1,5.739,10Z" transform="translate(0 -0.166)" fill="#fff"/>
    </g>
  </g>
</svg>
