<svg id="search" xmlns="http://www.w3.org/2000/svg" xmlns:xlink="http://www.w3.org/1999/xlink" width="36" height="36" viewBox="0 0 36 36">
  <defs>
    <clipPath id="clip-path">
      <rect id="Rectangle_9485" data-name="Rectangle 9485" width="14.857" height="15.376" fill="#b8c1c7"/>
    </clipPath>
  </defs>
  <g id="Ellipse_1255" data-name="Ellipse 1255" fill="#fff" stroke="#b8c1c7" stroke-width="1">
    <circle cx="18" cy="18" r="18" stroke="none"/>
    <circle cx="18" cy="18" r="17.5" fill="none"/>
  </g>
  <g id="Group_18451" data-name="Group 18451" transform="translate(10.544 10.544)">
    <g id="Group_18450" data-name="Group 18450" transform="translate(0 0)" clip-path="url(#clip-path)">
      <path id="Path_13544" data-name="Path 13544" d="M6.623,0c.315.05.636.078.945.153A6.018,6.018,0,0,1,11.788,3.5a6.035,6.035,0,0,1-.478,6.253c-.1.15-.216.288-.335.444.036.039.071.078.108.116l3.487,3.626a.824.824,0,0,1,.165,1.051.8.8,0,0,1-1.2.2,2.205,2.205,0,0,1-.162-.156q-1.744-1.812-3.487-3.626a.744.744,0,0,1-.072-.1c-.4.209-.752.429-1.131.589a5.985,5.985,0,0,1-5.072-.068A6.017,6.017,0,0,1,.221,7.78,5.921,5.921,0,0,1,.877,3.068,6.114,6.114,0,0,1,4.941.136C5.227.071,5.521.044,5.812,0ZM6.216,1.622A4.587,4.587,0,1,0,10.8,6.2,4.6,4.6,0,0,0,6.216,1.622" transform="translate(0 0)" fill="#b8c1c7"/>
    </g>
  </g>
</svg>
