<svg xmlns="http://www.w3.org/2000/svg" width="22" height="22" viewBox="0 0 22 22">
  <g id="Group_19922" data-name="Group 19922" transform="translate(-104 -229)">
    <g id="Group_19910" data-name="Group 19910">
      <rect id="Rectangle_11116" data-name="Rectangle 11116" width="22" height="22" transform="translate(104 229)" fill="none"/>
      <g id="_3_User" data-name="3 User" transform="translate(104 231.622)">
        <path id="Fill_1" data-name="Fill 1" d="M6.361,0C2.911,0,0,.579,0,2.812S2.93,5.6,6.361,5.6c3.45,0,6.361-.579,6.361-2.812S9.792,0,6.361,0" transform="translate(4.588 10.818)" fill="#fff"/>
        <path id="Fill_3" data-name="Fill 3" d="M4.209,8.691A4.264,4.264,0,0,0,8.419,4.345,4.264,4.264,0,0,0,4.209,0,4.264,4.264,0,0,0,0,4.345,4.264,4.264,0,0,0,4.209,8.691" transform="translate(6.74)" fill="#fff" opacity="0.6"/>
        <path id="Fill_6" data-name="Fill 6" d="M4.225,4.632A3.65,3.65,0,0,0,.8,0,3.5,3.5,0,0,0,.092.075.135.135,0,0,0,.01.126.108.108,0,0,0,.027.238,6.069,6.069,0,0,1,1.094,3.7,6.025,6.025,0,0,1,.11,7.025a.164.164,0,0,0,.107.25A3.2,3.2,0,0,0,.7,7.323,3.526,3.526,0,0,0,4.225,4.632" transform="translate(15.863 0.725)" fill="#fff" opacity="0.6"/>
        <path id="Fill_8" data-name="Fill 8" d="M5.407,1.632A2.75,2.75,0,0,0,3.276.293,15.168,15.168,0,0,0,.033,0,.037.037,0,0,0,0,.028.047.047,0,0,0,.029.077a4.571,4.571,0,0,1,2.655,4.5.184.184,0,0,0,.2.211c.577-.085,2.06-.414,2.521-1.439a2.02,2.02,0,0,0,0-1.714" transform="translate(16.402 9.471)" fill="#fff"/>
        <path id="Fill_11" data-name="Fill 11" d="M4.252.075A3.427,3.427,0,0,0,3.543,0,3.649,3.649,0,0,0,.12,4.632,3.525,3.525,0,0,0,3.644,7.323a3.312,3.312,0,0,0,.484-.048.164.164,0,0,0,.107-.25A6.028,6.028,0,0,1,3.25,3.7,6.065,6.065,0,0,1,4.318.238.108.108,0,0,0,4.334.126.129.129,0,0,0,4.252.075" transform="translate(1.793 0.726)" fill="#fff" opacity="0.6"/>
        <path id="Fill_13" data-name="Fill 13" d="M2.322.293A2.748,2.748,0,0,0,.191,1.631a2.016,2.016,0,0,0,0,1.715C.652,4.37,2.135,4.7,2.712,4.784a.183.183,0,0,0,.2-.211A4.569,4.569,0,0,1,5.569.077.049.049,0,0,0,5.6.027.034.034,0,0,0,5.566,0a15.13,15.13,0,0,0-3.244.29" transform="translate(0 9.471)" fill="#fff"/>
      </g>
    </g>
  </g>
</svg>
