<svg xmlns="http://www.w3.org/2000/svg" width="24" height="24" viewBox="0 0 24 24">
  <g id="staff" transform="translate(-6312 12390)">
    <g id="Group_18242" data-name="Group 18242" transform="translate(98)">
      <g id="Group_18237" data-name="Group 18237" transform="translate(-44 1)">
        <rect id="Rectangle_9414" data-name="Rectangle 9414" width="24" height="24" transform="translate(6258 -12391)" fill="none"/>
      </g>
    </g>
    <g id="Iconly_Bulk_3_User" data-name="Iconly/Bulk/3 User" transform="translate(6314 -12385)">
      <g id="_3_User" data-name="3 User">
        <path id="Fill_1" data-name="Fill 1" d="M5.941,0C2.719,0,0,.527,0,2.559S2.736,5.1,5.941,5.1c3.222,0,5.941-.527,5.941-2.559S9.146,0,5.941,0" transform="translate(4.285 9.844)" fill="#7c71f8"/>
        <path id="Fill_3" data-name="Fill 3" d="M3.931,7.908A3.929,3.929,0,0,0,7.863,3.954,3.931,3.931,0,1,0,0,3.954,3.929,3.929,0,0,0,3.931,7.908" transform="translate(6.295)" fill="#7c71f8" opacity="0.6"/>
        <path id="Fill_6" data-name="Fill 6" d="M3.946,4.215A3.338,3.338,0,0,0,.748,0,3.35,3.35,0,0,0,.086.068.127.127,0,0,0,.009.114a.1.1,0,0,0,.016.1,5.424,5.424,0,0,1,1,3.148A5.382,5.382,0,0,1,.1,6.392a.148.148,0,0,0,.1.228,3.066,3.066,0,0,0,.452.044A3.281,3.281,0,0,0,3.946,4.215" transform="translate(14.815 0.66)" fill="#7c71f8" opacity="0.6"/>
        <path id="Fill_8" data-name="Fill 8" d="M5.05,1.485A2.573,2.573,0,0,0,3.06.267,14.528,14.528,0,0,0,.031,0,.034.034,0,0,0,0,.026.043.043,0,0,0,.027.07a4.157,4.157,0,0,1,2.48,4.092.169.169,0,0,0,.189.192c.539-.077,1.924-.377,2.354-1.31a1.8,1.8,0,0,0,0-1.559" transform="translate(15.319 8.618)" fill="#7c71f8"/>
        <path id="Fill_11" data-name="Fill 11" d="M3.971.068A3.282,3.282,0,0,0,3.309,0a3.337,3.337,0,0,0-3.2,4.215A3.279,3.279,0,0,0,3.4,6.664a3.173,3.173,0,0,0,.452-.044.148.148,0,0,0,.1-.228A5.456,5.456,0,0,1,4.033.217a.1.1,0,0,0,.015-.1A.121.121,0,0,0,3.971.068" transform="translate(1.674 0.66)" fill="#7c71f8" opacity="0.6"/>
        <path id="Fill_13" data-name="Fill 13" d="M2.168.266A2.571,2.571,0,0,0,.179,1.484a1.792,1.792,0,0,0,0,1.56c.43.932,1.816,1.232,2.354,1.309a.168.168,0,0,0,.188-.192A4.156,4.156,0,0,1,5.2.07.044.044,0,0,0,5.227.025.031.031,0,0,0,5.2,0a14.492,14.492,0,0,0-3.03.264" transform="translate(0 8.618)" fill="#7c71f8"/>
      </g>
    </g>
  </g>
</svg>
