<svg xmlns="http://www.w3.org/2000/svg" xmlns:xlink="http://www.w3.org/1999/xlink" width="34" height="34" viewBox="0 0 34 34">
  <defs>
    <clipPath id="clip-path">
      <rect id="Rectangle_13138" data-name="Rectangle 13138" width="21.499" height="15.056" fill="#ce5d7d"/>
    </clipPath>
  </defs>
  <g id="Group_24212" data-name="Group 24212" transform="translate(-6731 17484)">
    <g id="Group_24208" data-name="Group 24208" transform="translate(118 7)">
      <g id="Group_24162" data-name="Group 24162" transform="translate(6572 -17706)">
        <rect id="Rectangle_13115" data-name="Rectangle 13115" width="34" height="34" rx="10" transform="translate(41 215)" fill="#fff"/>
      </g>
      <g id="Group_24206" data-name="Group 24206" transform="translate(6619 -17482)">
        <g id="Group_24204" data-name="Group 24204" clip-path="url(#clip-path)">
          <path id="Path_16753" data-name="Path 16753" d="M10.793,2.15A8.638,8.638,0,0,0,2.239,9.465a11.629,11.629,0,0,0-.1,1.28,1.057,1.057,0,0,1-1.11,1.081A1.06,1.06,0,0,1,0,10.692,10.752,10.752,0,0,1,21.162,8.063,10.239,10.239,0,0,1,21.5,10.7a1.062,1.062,0,0,1-1.042,1.123,1.045,1.045,0,0,1-1.1-1.068,8.545,8.545,0,0,0-1.389-4.666,8.464,8.464,0,0,0-6.124-3.865c-.367-.052-.736-.059-1.056-.078" transform="translate(0 0)" fill="#ce5d7d"/>
          <path id="Path_16754" data-name="Path 16754" d="M100.288,96.112a4.3,4.3,0,1,1-4.3,4.28,4.284,4.284,0,0,1,4.3-4.28" transform="translate(-89.534 -89.651)" fill="#ce5d7d"/>
        </g>
      </g>
    </g>
  </g>
</svg>
