<svg xmlns="http://www.w3.org/2000/svg" xmlns:xlink="http://www.w3.org/1999/xlink" width="34" height="34" viewBox="0 0 34 34">
  <defs>
    <clipPath id="clip-path">
      <rect id="Rectangle_13019" data-name="Rectangle 13019" width="18" height="18" transform="translate(-0.333 -0.333)" fill="#fff"/>
    </clipPath>
  </defs>
  <g id="Group_24163" data-name="Group 24163" transform="translate(-41 -215)">
    <g id="Group_24162" data-name="Group 24162">
      <rect id="Rectangle_13115" data-name="Rectangle 13115" width="34" height="34" rx="10" transform="translate(41 215)" fill="#41adb1"/>
    </g>
    <g id="Group_24152" data-name="Group 24152" transform="translate(49.775 223.775)">
      <g id="Group_23393" data-name="Group 23393" transform="translate(-0.441 -0.443)" clip-path="url(#clip-path)">
        <path id="Path_16744" data-name="Path 16744" d="M58.962,5q0,5.751,0,11.5c0,.111-.022.133-.133.133q-7.115-.005-14.23,0a.576.576,0,0,1-.355-.584c0-.336,0-.671,0-1.007,0-.289,0-.29.285-.29q2.509,0,5.018,0a3.469,3.469,0,0,0,.567-.027A2.622,2.622,0,0,0,52.362,12.1c.009-1.889,0-3.778,0-5.668a2.532,2.532,0,0,0-.092-.705A2.669,2.669,0,0,0,49.64,3.782q-2.59,0-5.18,0c-.147,0-.216-.034-.216-.2,0-1,0-2,0-3A.576.576,0,0,1,44.6,0h9.292q0,1.719.006,3.439a2.185,2.185,0,0,0,.021.4,1.453,1.453,0,0,0,1.44,1.163c1.2-.012,2.4,0,3.6,0" transform="translate(-41.979 0.349)" fill="#fff"/>
        <path id="Path_16745" data-name="Path 16745" d="M0,116.159v-6.27l.03-.109a1.735,1.735,0,0,1,1.756-1.333q2.809,0,5.618,0a1.734,1.734,0,0,1,1.734,1.721q.009,2.849,0,5.7a1.738,1.738,0,0,1-1.729,1.73q-2.85.008-5.7,0a1.689,1.689,0,0,1-1.014-.34,1.832,1.832,0,0,1-.7-1.1m4.692-.946a2.271,2.271,0,0,0,.74-.14,4.836,4.836,0,0,0,2.293-1.815.437.437,0,0,0-.021-.572,5.509,5.509,0,0,0-1.07-1.127,3.054,3.054,0,0,0-3.177-.554,4.7,4.7,0,0,0-1.968,1.621.5.5,0,0,0,0,.733,5.688,5.688,0,0,0,1.032,1.052,3.371,3.371,0,0,0,2.167.8" transform="translate(0.348 -103.398)" fill="#fff"/>
        <path id="Path_16746" data-name="Path 16746" d="M292.655,4.029v.032c-.059,0-.119.011-.178.011h-3.359a.529.529,0,0,1-.6-.6q0-1.1,0-2.207c0-.422.006-.844.009-1.265h.032c.079.074.159.147.236.223l3.858,3.806" transform="translate(-275.673 0.349)" fill="#fff"/>
        <path id="Path_16747" data-name="Path 16747" d="M58.213,183.594a2.313,2.313,0,0,1,1.244.425,4.989,4.989,0,0,1,.832.745c.052.056.109.113.035.194a3.456,3.456,0,0,1-1.671,1.152,1.989,1.989,0,0,1-1.632-.339,4.406,4.406,0,0,1-.888-.779c-.047-.053-.1-.1-.033-.18a3.349,3.349,0,0,1,1.747-1.174c.084-.019.171-.028.256-.038.043-.005.086-.005.11-.007m0,.829a.456.456,0,0,0-.471.454.468.468,0,0,0,.463.467.452.452,0,0,0,.463-.46.437.437,0,0,0-.454-.462" transform="translate(-53.29 -175.292)" fill="#fff"/>
      </g>
    </g>
  </g>
</svg>
