<svg id="white-task" xmlns="http://www.w3.org/2000/svg" width="23" height="23" viewBox="0 0 23 23">
  <g id="Activity">
    <path id="Path_34168" d="M14.561,20.7H6.148a6.227,6.227,0,0,1-4.526-1.623A6.212,6.212,0,0,1,0,14.56v-8.4A6.242,6.242,0,0,1,1.622,1.633,6.21,6.21,0,0,1,6.148,0H15.31a4.5,4.5,0,0,0-.081.849,4.633,4.633,0,0,0,4.632,4.624,4.763,4.763,0,0,0,.839-.081V14.56a6.216,6.216,0,0,1-1.62,4.516A6.212,6.212,0,0,1,14.561,20.7ZM8.305,8.141a.865.865,0,0,0-.113.007.852.852,0,0,0-.567.333l-3.4,4.382a.838.838,0,0,0-.182.526.85.85,0,0,0,1.568.495l2.841-3.676,3.155,2.475a.859.859,0,0,0,.534.188.852.852,0,0,0,.68-.34l3.286-4.24V8.27a.862.862,0,0,0-.161-1.2.84.84,0,0,0-1.193.172L11.983,10.8,8.829,8.32A.853.853,0,0,0,8.305,8.141Z" transform="translate(0 2.3)" fill="#fff"/>
    <circle id="Ellipse_742" cx="2.875" cy="2.875" r="2.875" transform="translate(17.25)" fill="#fff" opacity="0.4"/>
  </g>
</svg>
