<svg xmlns="http://www.w3.org/2000/svg" width="17.679" height="17" viewBox="0 0 17.679 17">
  <g id="white-pending" transform="translate(-185.04 -1135)">
    <g id="tasks" transform="translate(185.04 1133)">
      <path id="Path_5394" data-name="Path 5394" d="M17.126,2H.552A.582.582,0,0,0,0,2.607V6.061a.582.582,0,0,0,.552.607H17.126a.582.582,0,0,0,.552-.607V2.607A.582.582,0,0,0,17.126,2Zm-.552,3.453H11.852V3.214h4.721Zm.552,2.713H.552A.582.582,0,0,0,0,8.773v3.453a.582.582,0,0,0,.552.607H17.126a.582.582,0,0,0,.552-.607V8.773A.582.582,0,0,0,17.126,8.166Zm-.552,3.453h-8.3V9.38h8.3Zm.552,2.713H.552A.581.581,0,0,0,0,14.939v3.453A.582.582,0,0,0,.552,19H17.126a.582.582,0,0,0,.552-.607V14.939A.582.582,0,0,0,17.126,14.332Zm-.552,3.453h-1.52V15.547h1.52Z" fill="#fff"/>
    </g>
  </g>
</svg>
