<svg xmlns="http://www.w3.org/2000/svg" width="18.582" height="21.333" viewBox="0 0 18.582 21.333">
  <g id="white-datainput" transform="translate(0.5 0.5)">
    <g id="Paper" transform="translate(0 0)">
      <path id="Subtraction_11" data-name="Subtraction 11" d="M-9500.711,6879.459h-8.146a4.818,4.818,0,0,1-4.83-4.794V6863.71a4.606,4.606,0,0,1,4.617-4.584h5.47a.469.469,0,0,1,.469.468v3.269a3.411,3.411,0,0,0,3.424,3.391c.381,0,.726,0,1.031.006h.121c.312,0,.521,0,.7,0,.261,0,.691,0,1.28-.01a.467.467,0,0,1,.468.466v8.166A4.6,4.6,0,0,1-9500.711,6879.459Zm-7.313-7.225a.765.765,0,0,0-.771.757.765.765,0,0,0,.771.757h5.63a.765.765,0,0,0,.771-.757.765.765,0,0,0-.771-.757Zm0-5.079a.766.766,0,0,0-.771.759.764.764,0,0,0,.771.754h3.5a.764.764,0,0,0,.771-.754.766.766,0,0,0-.771-.759Z" transform="translate(9513.688 -6859.126)" fill="#fff" stroke="rgba(0,0,0,0)" stroke-miterlimit="10" stroke-width="1"/>
      <path id="Fill_1" data-name="Fill 1" d="M.849.15A.5.5,0,0,0,0,.489V3.17A2.078,2.078,0,0,0,2.086,5.22c.721.008,1.722.01,2.572.008a.484.484,0,0,0,.355-.821C3.922,3.291,1.968,1.293.849.15" transform="translate(12.167 0.427)" fill="#fff" opacity="0.4"/>
    </g>
  </g>
</svg>
