<svg xmlns="http://www.w3.org/2000/svg" width="19.483" height="23.777" viewBox="0 0 19.483 23.777">
  <g id="white-usermanagement" transform="translate(-45.334 -629.737)">
    <g id="Iconly_Bulk_3_User" data-name="Iconly/Bulk/3 User" transform="translate(45.333 629.737)">
      <g id="_3_User" data-name="3 User">
        <path id="Fill_1" data-name="Fill 1" d="M6.847,0C3.133,0,0,1.068,0,5.192s3.154,5.156,6.847,5.156c3.714,0,6.847-1.068,6.847-5.192S10.541,0,6.847,0" transform="translate(0 10.799)" fill="#fff"/>
        <path id="Fill_3" data-name="Fill 3" d="M4.531,9.8A4.711,4.711,0,0,0,9.062,4.9,4.71,4.71,0,0,0,4.531,0,4.71,4.71,0,0,0,0,4.9,4.711,4.711,0,0,0,4.531,9.8" transform="translate(2.316)" fill="#fff" opacity="0.4"/>
      </g>
    </g>
    <g id="Group_10638" data-name="Group 10638" transform="translate(55.363 643.112)">
      <g id="Iconly_Bulk_Setting" data-name="Iconly/Bulk/Setting" transform="translate(-0.427 0)">
        <g id="Setting" transform="translate(0)">
          <path id="Path" d="M1.51,2.939A1.484,1.484,0,0,1,0,1.472,1.488,1.488,0,0,1,1.51,0a1.47,1.47,0,1,1,0,2.939" transform="translate(3.438 3.734)" fill="#fff"/>
          <path id="Path-2" data-name="Path" d="M9.742,6.434a1.2,1.2,0,0,0-.431-.411.8.8,0,0,1-.33-.333.948.948,0,0,1,.34-1.3,1.054,1.054,0,0,0,.393-1.472L9.359,2.3a1.1,1.1,0,0,0-1.494-.4A1.026,1.026,0,0,1,6.526,1.55.8.8,0,0,1,6.4,1.092.925.925,0,0,0,6.26.541,1.119,1.119,0,0,0,5.314,0H4.565a1.141,1.141,0,0,0-.941.541.928.928,0,0,0-.149.551.8.8,0,0,1-.122.458,1.021,1.021,0,0,1-1.334.359,1.1,1.1,0,0,0-1.5.4l-.356.614A1.063,1.063,0,0,0,.557,4.39.954.954,0,0,1,.9,5.69a.85.85,0,0,1-.335.333,1.1,1.1,0,0,0-.425.411A1.038,1.038,0,0,0,.153,7.5l.367.624a1.11,1.11,0,0,0,.946.541,1.124,1.124,0,0,0,.563-.156A.825.825,0,0,1,2.5,8.39a.984.984,0,0,1,.978.947A1.077,1.077,0,0,0,4.581,10.4H5.3A1.076,1.076,0,0,0,6.4,9.336a.993.993,0,0,1,.983-.947.848.848,0,0,1,.468.12,1.091,1.091,0,0,0,1.5-.385L9.731,7.5a1.05,1.05,0,0,0,.011-1.066" transform="translate(0)" fill="#fff"/>
        </g>
      </g>
      <circle id="Ellipse_549" data-name="Ellipse 549" cx="2" cy="2" r="2" transform="translate(2.573 3.402)" fill="#efefef"/>
    </g>
  </g>
</svg>
